<svg xmlns="http://www.w3.org/2000/svg" width="470.0" height="310.00000000000006"><polyline stroke="black" stroke-width="1" points="100.0 100.00000000000013 100.0 110.00000000000013 110.0 110.00000000000013 110.0 100.00000000000013 120.0 100.00000000000013 120.0 90.00000000000013 110.0 90.00000000000013 110.0 80.00000000000013 120.0 80.00000000000013 120.0 70.00000000000013 110.0 70.00000000000013 110.0 80.00000000000013 100.0 80.00000000000011 100.0 70.00000000000011 90.0 70.00000000000011 90.0 60.000000000000114 100.0 60.000000000000114 100.0 50.000000000000114 90.0 50.000000000000114 90.0 60.000000000000114 80.0 60.000000000000114 80.0 70.00000000000011 90.0 70.00000000000011 90.0 80.00000000000011 80.0 80.00000000000011 80.0 70.00000000000011 70.0 70.00000000000011 70.0 80.00000000000011 60.00000000000001 80.0000000000001 60.00000000000001 70.0000000000001 50.00000000000001 70.0000000000001 50.00000000000001 60.0000000000001 60.00000000000001 60.0000000000001 60.00000000000001 50.0000000000001 50.00000000000001 50.0000000000001 50.00000000000001 60.0000000000001 40.00000000000001 60.0000000000001 40.00000000000001 70.0000000000001 50.00000000000001 70.0000000000001 50.00000000000001 80.0000000000001 40.00000000000001 80.0000000000001 40.00000000000001 90.0000000000001 50.00000000000001 90.0000000000001 50.00000000000001 80.0000000000001 60.00000000000001 80.0000000000001 60.00000000000001 90.0000000000001 70.0 90.0000000000001 70.0 100.0000000000001 60.00000000000001 100.0000000000001 60.00000000000001 90.0000000000001 50.00000000000001 90.00000000000009 50.00000000000001 100.00000000000009 40.00000000000001 100.00000000000009 40.00000000000001 110.00000000000009 50.00000000000001 110.00000000000009 50.00000000000001 120.00000000000009 40.00000000000001 120.00000000000009 40.00000000000001 110.00000000000009 30.0 110.00000000000009 30.0 120.00000000000009 20.0 120.00000000000009 20.0 110.00000000000009 10.0 110.00000000000009 10.0 100.00000000000009 20.0 100.00000000000009 20.0 90.00000000000009 10.0 90.00000000000009 10.0 100.00000000000009 0.0 100.00000000000007 0.0 110.00000000000007 10.0 110.00000000000007 10.0 120.00000000000009 0.0 120.00000000000007 0.0 130.00000000000009 10.0 130.00000000000009 10.0 120.00000000000007 20.0 120.00000000000007 20.0 130.00000000000009 30.0 130.00000000000009 30.0 140.00000000000006 20.0 140.00000000000006 20.0 150.00000000000006 30.0 150.00000000000006 30.0 140.00000000000006 40.0 140.00000000000006 40.0 130.00000000000006 30.0 130.00000000000006 30.0 120.00000000000007 40.0 120.00000000000007 40.0 130.00000000000006 50.0 130.00000000000006 50.0 120.00000000000007 60.0 120.00000000000007 60.0 130.00000000000006 70.0 130.00000000000006 70.0 140.00000000000006 60.0 140.00000000000006 60.0 130.00000000000006 50.0 130.00000000000006 50.0 140.00000000000006 40.0 140.00000000000006 40.0 150.00000000000006 50.0 150.00000000000006 50.0 160.00000000000006 40.0 160.00000000000006 40.0 170.00000000000006 50.0 170.00000000000006 50.0 160.00000000000006 60.0 160.00000000000006 60.0 170.00000000000006 70.0 170.00000000000006 70.0 180.00000000000006 60.0 180.00000000000006 60.0 170.00000000000006 50.0 170.00000000000006 50.0 180.00000000000006 40.0 180.00000000000006 40.0 190.00000000000006 50.0 190.00000000000006 50.0 200.00000000000006 40.0 200.00000000000006 40.0 190.00000000000006 30.0 190.00000000000006 30.0 200.00000000000006 20.0 200.00000000000006 20.0 190.00000000000006 10.0 190.00000000000006 10.0 180.00000000000006 20.0 180.00000000000006 20.0 170.00000000000006 10.0 170.00000000000006 10.0 180.00000000000006 0.0 180.00000000000006 0.0 190.00000000000006 10.0 190.00000000000006 10.0 200.00000000000006 0.0 200.00000000000006 0.0 210.00000000000006 10.0 210.00000000000006 10.0 200.00000000000006 20.0 200.00000000000006 20.0 210.00000000000006 30.0 210.00000000000006 30.0 220.00000000000006 20.0 220.00000000000006 20.0 230.00000000000006 30.0 230.00000000000006 30.0 220.00000000000006 40.0 220.00000000000006 40.0 210.00000000000006 30.0 210.00000000000006 30.0 200.00000000000006 40.0 200.00000000000006 40.0 210.00000000000006 50.0 210.00000000000006 50.0 200.00000000000006 60.0 200.00000000000006 60.0 210.00000000000006 70.0 210.00000000000006 70.0 220.00000000000006 60.0 220.00000000000006 60.0 230.00000000000006 70.0 230.00000000000006 70.0 220.00000000000006 80.0 220.00000000000006 80.0 210.00000000000006 70.0 210.00000000000006 70.0 200.00000000000006 80.0 200.00000000000006 80.0 190.00000000000006 70.0 190.00000000000006 70.0 200.00000000000006 60.0 200.00000000000006 60.0 190.00000000000006 50.0 190.00000000000006 50.0 180.00000000000006 60.0 180.00000000000006 60.0 190.00000000000006 70.0 190.00000000000006 70.0 180.00000000000006 80.0 180.00000000000006 80.0 170.00000000000006 70.0 170.00000000000006 70.0 160.00000000000006 80.0 160.00000000000006 80.0 170.00000000000006 90.0 170.00000000000006 90.0 160.00000000000006 100.0 160.00000000000006 100.0 170.00000000000006 110.0 170.00000000000006 110.0 180.00000000000006 100.0 180.00000000000006 100.0 170.00000000000006 90.0 170.00000000000006 90.0 180.00000000000006 80.0 180.00000000000006 80.0 190.00000000000006 90.0 190.00000000000006 90.0 200.00000000000006 80.0 200.00000000000006 80.0 210.00000000000006 90.0 210.00000000000006 90.0 200.00000000000006 100.0 200.00000000000006 100.0 210.00000000000006 110.0 210.00000000000006 110.0 220.00000000000006 100.0 220.00000000000006 100.0 230.00000000000006 110.0 230.00000000000006 110.0 220.00000000000006 120.0 220.00000000000006 120.0 210.00000000000006 110.0 210.00000000000006 110.00000000000001 200.00000000000006 120.0 200.00000000000006 120.0 210.00000000000006 130.0 210.00000000000006 130.0 200.00000000000006 140.0 200.00000000000006 140.0 210.00000000000006 150.0 210.00000000000006 150.0 220.00000000000006 140.0 220.00000000000006 140.0 210.00000000000006 130.0 210.00000000000006 130.0 220.00000000000006 120.0 220.00000000000006 120.0 230.00000000000006 130.0 230.00000000000006 130.0 240.00000000000006 120.0 240.00000000000006 120.0 250.00000000000006 130.0 250.00000000000006 130.0 240.00000000000006 140.0 240.00000000000006 140.0 250.00000000000006 150.0 250.00000000000006 150.0 260.00000000000006 140.0 260.00000000000006 140.0 250.00000000000006 130.0 250.00000000000006 130.0 260.00000000000006 120.0 260.00000000000006 120.0 270.00000000000006 130.0 270.00000000000006 130.0 280.00000000000006 120.0 280.00000000000006 120.0 270.00000000000006 110.0 270.00000000000006 110.0 280.00000000000006 100.0 280.00000000000006 100.00000000000001 270.00000000000006 90.00000000000001 270.00000000000006 90.00000000000001 260.00000000000006 100.00000000000001 260.00000000000006 100.00000000000001 250.00000000000006 90.00000000000001 250.00000000000006 90.00000000000001 260.00000000000006 80.00000000000001 260.00000000000006 80.00000000000001 270.00000000000006 90.00000000000001 270.00000000000006 90.00000000000001 280.00000000000006 80.00000000000001 280.00000000000006 80.00000000000001 290.00000000000006 90.00000000000001 290.00000000000006 90.00000000000001 280.00000000000006 100.00000000000001 280.00000000000006 100.00000000000001 290.00000000000006 110.00000000000001 290.00000000000006 110.00000000000001 300.00000000000006 100.00000000000001 300.00000000000006 100.00000000000001 310.00000000000006 110.00000000000001 310.00000000000006 110.00000000000001 300.00000000000006 120.00000000000001 300.00000000000006 120.00000000000001 290.00000000000006 110.00000000000001 290.00000000000006 110.00000000000001 280.00000000000006 120.00000000000003 280.00000000000006 120.00000000000003 290.00000000000006 130.00000000000003 290.00000000000006 130.00000000000003 280.00000000000006 140.00000000000003 280.00000000000006 140.00000000000003 290.00000000000006 150.00000000000003 290.00000000000006 150.00000000000003 300.00000000000006 140.00000000000003 300.00000000000006 140.00000000000003 310.00000000000006 150.00000000000003 310.00000000000006 150.00000000000003 300.00000000000006 160.00000000000003 300.00000000000006 160.00000000000003 290.00000000000006 150.00000000000003 290.00000000000006 150.00000000000003 280.00000000000006 160.00000000000003 280.00000000000006 160.00000000000003 270.00000000000006 150.00000000000003 270.00000000000006 150.00000000000003 280.00000000000006 140.00000000000003 280.00000000000006 140.00000000000003 270.00000000000006 130.00000000000003 270.00000000000006 130.00000000000003 260.00000000000006 140.00000000000003 260.00000000000006 140.00000000000003 270.00000000000006 150.00000000000003 270.00000000000006 150.00000000000003 260.00000000000006 160.00000000000003 260.00000000000006 160.00000000000003 250.00000000000006 150.00000000000003 250.00000000000006 150.00000000000003 240.00000000000006 160.00000000000003 240.00000000000006 160.00000000000003 250.00000000000006 170.00000000000003 250.00000000000006 170.00000000000003 240.00000000000006 180.00000000000003 240.00000000000006 180.00000000000003 250.00000000000006 190.00000000000003 250.00000000000006 190.00000000000003 260.00000000000006 180.00000000000003 260.00000000000006 180.00000000000003 270.00000000000006 190.00000000000003 270.00000000000006 190.00000000000003 260.00000000000006 200.00000000000003 260.00000000000006 200.00000000000003 250.00000000000006 190.00000000000003 250.00000000000006 190.00000000000003 240.00000000000006 200.00000000000003 240.00000000000006 200.00000000000003 230.00000000000006 190.00000000000003 230.00000000000006 190.00000000000003 240.00000000000006 180.00000000000003 240.00000000000006 180.00000000000003 230.00000000000006 170.00000000000003 230.00000000000006 170.00000000000003 220.00000000000006 180.00000000000003 220.00000000000006 180.00000000000003 210.00000000000006 170.00000000000003 210.00000000000006 170.00000000000003 220.00000000000006 160.00000000000003 220.00000000000006 160.00000000000003 230.00000000000006 170.00000000000003 230.00000000000006 170.00000000000003 240.00000000000006 160.00000000000003 240.00000000000006 160.00000000000003 230.00000000000006 150.00000000000003 230.00000000000006 150.00000000000003 240.00000000000006 140.00000000000003 240.00000000000006 140.00000000000003 230.00000000000006 130.00000000000003 230.00000000000006 130.00000000000003 220.00000000000006 140.00000000000003 220.00000000000006 140.00000000000003 230.00000000000006 150.00000000000003 230.00000000000006 150.00000000000003 220.00000000000006 160.00000000000003 220.00000000000006 160.00000000000003 210.00000000000006 150.00000000000003 210.00000000000006 150.00000000000003 200.00000000000006 160.00000000000003 200.00000000000006 160.00000000000003 190.00000000000006 150.00000000000003 190.00000000000006 150.00000000000003 200.00000000000006 140.00000000000003 200.00000000000006 140.00000000000003 190.00000000000006 130.00000000000003 190.00000000000006 130.00000000000003 180.00000000000006 140.00000000000003 180.00000000000006 140.00000000000003 190.00000000000006 150.00000000000003 190.00000000000006 150.00000000000003 180.00000000000006 160.00000000000003 180.00000000000006 160.00000000000003 170.00000000000006 150.00000000000003 170.00000000000006 150.00000000000003 160.00000000000006 160.00000000000003 160.00000000000006 160.00000000000003 170.00000000000006 170.00000000000003 170.00000000000006 170.00000000000003 160.00000000000006 180.00000000000003 160.00000000000006 180.00000000000003 170.00000000000006 190.00000000000003 170.00000000000006 190.00000000000003 180.00000000000006 180.00000000000003 180.00000000000006 180.00000000000003 170.00000000000006 170.00000000000003 170.00000000000006 170.00000000000003 180.00000000000006 160.00000000000003 180.00000000000006 160.00000000000003 190.00000000000006 170.00000000000003 190.00000000000006 170.00000000000003 200.00000000000006 160.00000000000003 200.00000000000006 160.00000000000003 210.00000000000006 170.00000000000003 210.00000000000006 170.00000000000003 200.00000000000006 180.00000000000003 200.00000000000006 180.00000000000003 210.00000000000006 190.00000000000003 210.00000000000006 190.00000000000003 220.00000000000006 180.00000000000003 220.00000000000006 180.00000000000003 230.00000000000006 190.00000000000003 230.00000000000006 190.00000000000003 220.00000000000006 200.00000000000003 220.00000000000006 200.00000000000003 210.00000000000006 190.00000000000003 210.00000000000006 190.00000000000003 200.00000000000006 200.00000000000003 200.00000000000006 200.00000000000003 210.00000000000006 210.00000000000003 210.00000000000006 210.00000000000003 200.00000000000006 220.00000000000003 200.00000000000006 220.00000000000003 210.00000000000006 230.00000000000003 210.00000000000006 230.00000000000003 220.00000000000006 220.00000000000003 220.00000000000006 220.00000000000003 230.00000000000006 230.00000000000003 230.00000000000006 230.00000000000003 220.00000000000006 240.00000000000003 220.00000000000006 240.00000000000003 210.00000000000006 230.00000000000003 210.00000000000006 230.00000000000003 200.00000000000006 240.00000000000003 200.00000000000006 240.00000000000003 190.00000000000006 230.00000000000003 190.00000000000006 230.00000000000003 200.00000000000006 220.00000000000003 200.00000000000006 220.00000000000003 190.00000000000006 210.00000000000003 190.00000000000006 210.00000000000003 180.00000000000006 220.00000000000003 180.00000000000006 220.00000000000003 190.00000000000006 230.00000000000003 190.00000000000006 230.00000000000003 180.00000000000006 240.00000000000003 180.00000000000006 240.00000000000003 170.00000000000006 230.00000000000003 170.00000000000006 230.00000000000003 160.00000000000006 240.00000000000003 160.00000000000006 240.00000000000003 170.00000000000006 250.00000000000003 170.00000000000006 250.00000000000003 160.00000000000006 260.0 160.00000000000006 260.0 170.00000000000006 270.0 170.00000000000006 270.0 180.00000000000006 260.0 180.00000000000006 260.0 170.00000000000006 250.00000000000003 170.00000000000006 250.00000000000003 180.00000000000006 240.00000000000003 180.00000000000006 240.00000000000003 190.00000000000006 250.00000000000003 190.00000000000006 250.00000000000003 200.00000000000006 240.00000000000003 200.00000000000006 240.00000000000003 210.00000000000006 250.00000000000003 210.00000000000006 250.00000000000003 200.00000000000006 260.0 200.00000000000006 260.0 210.00000000000006 270.0 210.00000000000006 270.0 220.00000000000006 260.0 220.00000000000006 260.0 230.00000000000006 270.0 230.00000000000006 270.0 220.00000000000006 280.0 220.00000000000006 280.0 210.00000000000006 270.0 210.00000000000006 270.0 200.00000000000006 280.0 200.00000000000006 280.0 210.00000000000006 290.0 210.00000000000006 290.0 200.00000000000006 300.0 200.00000000000006 300.0 210.00000000000006 310.0 210.00000000000006 310.0 220.00000000000006 300.0 220.00000000000006 300.0 210.00000000000006 290.0 210.00000000000006 290.0 220.00000000000006 280.0 220.00000000000006 280.0 230.00000000000006 290.0 230.00000000000006 290.0 240.00000000000006 280.0 240.00000000000006 280.0 250.00000000000006 290.0 250.00000000000006 290.0 240.00000000000006 300.0 240.00000000000006 300.0 250.00000000000006 310.0 250.00000000000006 310.0 260.00000000000006 300.0 260.00000000000006 300.0 250.00000000000006 290.0 250.00000000000006 290.0 260.00000000000006 280.0 260.00000000000006 280.0 270.00000000000006 290.0 270.00000000000006 290.0 280.00000000000006 280.0 280.00000000000006 280.0 270.00000000000006 270.0 270.00000000000006 270.0 280.00000000000006 260.0 280.00000000000006 260.0 270.00000000000006 250.00000000000003 270.00000000000006 250.00000000000003 260.00000000000006 260.0 260.00000000000006 260.0 250.00000000000006 250.00000000000003 250.00000000000006 250.00000000000003 260.00000000000006 240.00000000000003 260.00000000000006 240.00000000000003 270.00000000000006 250.00000000000003 270.00000000000006 250.00000000000003 280.00000000000006 240.00000000000003 280.00000000000006 240.00000000000003 290.00000000000006 250.00000000000003 290.00000000000006 250.00000000000003 280.00000000000006 260.0 280.00000000000006 260.0 290.00000000000006 270.0 290.00000000000006 270.0 300.00000000000006 260.0 300.00000000000006 260.0 310.00000000000006 270.0 310.00000000000006 270.0 300.00000000000006 280.0 300.00000000000006 280.0 290.00000000000006 270.0 290.00000000000006 270.0 280.00000000000006 280.0 280.00000000000006 280.0 290.00000000000006 290.0 290.00000000000006 290.0 280.00000000000006 300.0 280.00000000000006 300.0 290.00000000000006 310.0 290.00000000000006 310.0 300.00000000000006 300.0 300.00000000000006 300.0 310.00000000000006 310.0 310.00000000000006 310.0 300.00000000000006 320.0 300.00000000000006 320.0 290.00000000000006 310.0 290.00000000000006 310.0 280.00000000000006 320.0 280.00000000000006 320.0 270.00000000000006 310.0 270.00000000000006 310.0 280.00000000000006 300.0 280.00000000000006 300.0 270.00000000000006 290.0 270.00000000000006 290.0 260.00000000000006 300.0 260.00000000000006 300.0 270.00000000000006 310.0 270.00000000000006 310.0 260.00000000000006 320.0 260.00000000000006 320.0 250.00000000000006 310.0 250.00000000000006 310.0 240.00000000000006 320.0 240.00000000000006 320.0 250.00000000000006 330.0 250.00000000000006 330.0 240.00000000000006 340.0 240.00000000000006 340.0 250.00000000000006 350.0 250.00000000000006 350.0 260.00000000000006 340.0 260.00000000000006 340.0 270.00000000000006 350.0 270.00000000000006 350.0 260.00000000000006 360.0 260.00000000000006 360.0 250.00000000000006 350.0 250.00000000000006 350.0 240.00000000000006 360.0 240.00000000000006 360.0 230.00000000000006 350.0 230.00000000000006 350.0 240.00000000000006 340.0 240.00000000000006 340.0 230.00000000000006 330.0 230.00000000000006 330.0 220.00000000000006 340.0 220.00000000000006 340.0 210.00000000000006 330.0 210.00000000000006 330.0 220.00000000000006 320.0 220.00000000000006 320.0 230.00000000000006 330.0 230.00000000000006 330.0 240.00000000000006 320.0 240.00000000000006 320.0 230.00000000000006 310.0 230.00000000000006 310.0 240.00000000000006 300.0 240.00000000000006 300.0 230.00000000000006 290.0 230.00000000000006 290.0 220.00000000000006 300.0 220.00000000000006 300.0 230.00000000000006 310.0 230.00000000000006 310.0 220.00000000000006 320.0 220.00000000000006 320.0 210.00000000000006 310.0 210.00000000000006 310.0 200.00000000000006 320.0 200.00000000000006 320.0 190.00000000000006 310.0 190.00000000000006 310.0 200.00000000000006 300.0 200.00000000000006 300.0 190.00000000000006 290.0 190.00000000000006 290.0 180.00000000000006 300.0 180.00000000000006 300.0 190.00000000000006 310.0 190.00000000000006 310.0 180.00000000000006 320.0 180.00000000000006 320.0 170.00000000000006 310.0 170.00000000000006 310.0 160.00000000000006 320.0 160.00000000000006 320.0 170.00000000000006 330.0 170.00000000000006 330.0 160.00000000000006 340.0 160.00000000000006 340.0 170.00000000000006 350.0 170.00000000000006 350.0 180.00000000000006 340.0 180.00000000000006 340.0 190.00000000000006 350.0 190.00000000000006 350.0 180.00000000000006 360.0 180.00000000000006 360.0 170.00000000000006 350.0 170.00000000000006 350.0 160.00000000000006 360.0 160.00000000000006 360.0 150.00000000000006 350.0 150.00000000000006 350.0 160.00000000000006 340.0 160.00000000000006 340.0 150.00000000000006 330.0 150.00000000000006 330.0 140.00000000000006 340.0 140.00000000000006 340.0 130.00000000000006 330.0 130.00000000000006 330.0 140.00000000000006 320.0 140.00000000000006 320.0 150.00000000000006 330.0 150.00000000000006 330.0 160.00000000000006 320.0 160.00000000000006 320.0 150.00000000000006 310.0 150.00000000000006 310.0 160.00000000000006 300.0 160.00000000000006 300.0 150.00000000000006 290.0 150.00000000000006 290.0 140.00000000000006 300.0 140.00000000000006 300.0 130.00000000000006 290.0 130.00000000000006 290.0 140.00000000000006 280.0 140.00000000000006 280.0 150.00000000000006 290.0 150.00000000000006 290.0 160.00000000000006 280.0 160.00000000000006 280.0 170.00000000000006 290.0 170.00000000000006 290.0 160.00000000000006 300.0 160.00000000000006 300.0 170.00000000000006 310.0 170.00000000000006 310.0 180.00000000000006 300.0 180.00000000000006 300.0 170.00000000000006 290.0 170.00000000000006 290.0 180.00000000000006 280.0 180.00000000000006 280.0 190.00000000000006 290.0 190.00000000000006 290.0 200.00000000000006 280.0 200.00000000000006 280.0 190.00000000000006 270.0 190.00000000000006 270.0 200.00000000000006 260.0 200.00000000000006 260.0 190.00000000000006 250.0 190.00000000000006 250.0 180.00000000000006 260.0 180.00000000000006 260.0 190.00000000000006 270.0 190.00000000000006 270.0 180.00000000000006 280.0 180.00000000000006 280.0 170.00000000000006 270.0 170.00000000000006 270.0 160.00000000000006 280.0 160.00000000000006 280.0 150.00000000000006 270.0 150.00000000000006 270.0 160.00000000000006 260.0 160.00000000000006 260.0 150.00000000000006 250.0 150.00000000000006 250.0 140.00000000000006 260.0 140.00000000000006 260.0 130.00000000000006 250.0 130.00000000000006 250.0 140.00000000000006 240.0 140.00000000000006 240.0 150.00000000000006 250.0 150.00000000000006 250.0 160.00000000000006 240.0 160.00000000000006 240.0 150.00000000000006 230.0 150.00000000000006 230.0 160.00000000000006 220.0 160.00000000000006 220.0 150.00000000000006 210.0 150.00000000000006 210.0 140.00000000000006 220.0 140.00000000000006 220.0 150.00000000000006 230.0 150.00000000000006 230.0 140.00000000000006 240.0 140.00000000000006 240.0 130.00000000000006 230.0 130.00000000000006 230.0 120.00000000000007 240.0 120.00000000000007 240.0 110.00000000000007 230.0 110.00000000000007 230.0 120.00000000000006 220.0 120.00000000000006 220.0 110.00000000000006 210.0 110.00000000000006 210.0 100.00000000000006 220.0 100.00000000000006 220.0 110.00000000000006 230.0 110.00000000000006 230.0 100.00000000000006 240.0 100.00000000000006 240.0 90.00000000000006 230.0 90.00000000000006 230.0 80.00000000000006 240.0 80.00000000000006 240.0 90.00000000000006 250.0 90.00000000000006 250.0 80.00000000000006 260.0 80.00000000000006 260.0 90.00000000000006 270.0 90.00000000000006 270.0 100.00000000000006 260.0 100.00000000000006 260.0 90.00000000000006 250.0 90.00000000000006 250.0 100.00000000000006 240.0 100.00000000000006 240.0 110.00000000000006 250.0 110.00000000000006 250.0 120.00000000000006 240.0 120.00000000000004 240.0 130.00000000000006 250.0 130.00000000000006 250.0 120.00000000000004 260.0 120.00000000000004 260.0 130.00000000000006 270.0 130.00000000000006 270.0 140.00000000000006 260.0 140.00000000000006 260.0 150.00000000000006 270.0 150.00000000000006 270.0 140.00000000000006 280.0 140.00000000000006 280.0 130.00000000000006 270.0 130.00000000000003 270.0 120.00000000000004 280.0 120.00000000000004 280.0 130.00000000000003 290.0 130.00000000000003 290.0 120.00000000000004 300.0 120.00000000000004 300.0 130.00000000000003 310.0 130.00000000000003 310.0 140.00000000000006 300.0 140.00000000000006 300.0 150.00000000000006 310.0 150.00000000000006 310.0 140.00000000000006 320.0 140.00000000000006 320.0 130.00000000000006 310.0 130.00000000000003 310.0 120.00000000000004 320.0 120.00000000000004 320.0 110.00000000000004 310.0 110.00000000000004 310.0 120.00000000000003 300.0 120.00000000000003 300.0 110.00000000000003 290.0 110.00000000000003 290.0 100.00000000000003 300.0 100.00000000000003 300.0 110.00000000000003 310.0 110.00000000000003 310.0 100.00000000000003 320.0 100.00000000000003 320.0 90.00000000000003 310.0 90.00000000000003 310.0 80.00000000000003 320.0 80.00000000000003 320.0 90.00000000000003 330.0 90.00000000000003 330.0 80.00000000000003 340.0 80.00000000000003 340.0 90.00000000000003 350.0 90.00000000000003 350.0 100.00000000000003 340.0 100.00000000000003 340.0 110.00000000000003 350.0 110.00000000000003 350.0 100.00000000000003 360.0 100.00000000000003 360.0 90.00000000000003 350.0 90.00000000000003 350.0 80.00000000000003 360.0 80.00000000000003 360.0 70.00000000000003 350.0 70.00000000000003 350.0 80.00000000000003 340.0 80.00000000000001 340.0 70.00000000000001 330.0 70.00000000000001 330.0 60.000000000000014 340.0 60.000000000000014 340.0 50.000000000000014 330.0 50.000000000000014 330.0 60.000000000000014 320.0 60.000000000000014 320.0 70.00000000000001 330.0 70.00000000000001 330.0 80.00000000000001 320.0 80.00000000000001 320.0 70.00000000000001 310.0 70.0 310.0 80.0 300.0 80.0 300.0 70.0 290.0 70.0 290.0 60.0 300.0 60.0 300.0 70.0 310.0 70.0 310.0 60.0 320.0 60.0 320.0 50.0 310.0 50.0 310.0 40.0 320.0 40.0 320.0 30.0 310.0 30.0 310.0 40.0 300.0 40.0 300.0 30.0 290.0 30.0 290.0 20.0 300.0 20.0 300.0 30.0 310.0 30.0 310.0 20.0 320.0 20.0 320.0 10.0 310.0 10.0 310.0 0.0 320.0 0.0 320.0 10.0 330.0 10.0 330.0 0.0 340.0 0.0 340.0 10.0 350.0 10.0 350.0 20.0 340.0 20.0 340.0 10.0 330.0 10.0 330.0 20.0 320.0 20.0 320.0 30.0 330.0 30.0 330.0 40.0 320.0 40.0 320.0 50.0 330.0 50.0 330.0 40.0 340.0 40.0 340.0 50.0 350.0 50.0 350.0 60.0 340.0 60.0 340.0 70.0 350.0 70.0 350.0 60.0 360.0 60.0 360.0 50.0 350.0 50.0 350.0 40.0 360.0 40.0 360.0 50.0 370.0 50.0 370.0 40.0 380.0 40.0 380.0 50.0 390.0 50.0 390.0 60.0 380.0 60.0 380.0 70.0 390.0 70.0 390.0 60.0 400.0 60.0 400.0 50.0 390.0 50.0 390.0 40.0 400.0 40.0 400.0 30.0 390.0 30.0 390.0 40.0 380.0 40.0 380.0 30.0 370.0 30.0 370.0 20.0 380.0 20.0 380.0 30.0 390.0 30.0 390.0 20.0 400.0 20.0 400.0 10.0 390.0 10.0 390.0 0.0 400.0 0.0 400.0 10.0 410.0 10.0 410.0 0.0 420.0 0.0 420.0 10.0 430.0 10.0 430.0 20.0 420.0 20.0 420.0 10.0 410.0 10.0 410.0 20.0 400.0 20.0 400.0 30.0 410.0 30.0 410.0 40.0 400.0 40.0 400.0 50.0 410.0 50.0 410.0 40.0 420.0 40.0 420.0 50.0 430.0 50.0 430.0 60.0 420.0 60.0 420.0 70.0 430.0 70.0 430.0 60.0 440.0 60.0 440.0 50.0 430.0 50.0 430.0 40.0 440.0 40.0 440.0 50.0 450.0 50.0 450.0 40.0 460.0 40.0 460.0 50.0 470.0 50.0 470.0 60.0 460.0 60.0 460.0 50.0 450.0 50.0 450.0 60.0 440.0 60.0 440.0 70.0 450.0 70.0 450.0 80.0 440.0 80.0 440.0 90.0 450.0 90.0 450.0 80.0 460.0 80.0 460.0 90.0 470.0 90.0 470.0 100.0 460.0 100.0 460.0 90.0 450.0 90.0 450.0 100.0 440.0 99.99999999999999 440.0 109.99999999999999 450.0 109.99999999999999 450.0 120.0 440.0 119.99999999999999 440.0 109.99999999999999 430.0 109.99999999999999 430.0 119.99999999999999 420.0 119.99999999999999 420.0 109.99999999999999 410.0 109.99999999999999 410.0 99.99999999999999 420.0 99.99999999999999" fill="transparent"/></svg>
