<svg xmlns="http://www.w3.org/2000/svg" width="520.0" height="630.0000000000002"><polyline stroke="black" stroke-width="1" points="100.0 420.0000000000002 100.0 430.0000000000002 110.0 430.0000000000002 110.0 420.0000000000002 120.0 420.0000000000002 120.0 410.0000000000002 110.0 410.0000000000002 110.0 400.0000000000002 120.0 400.0000000000002 120.0 390.0000000000002 110.0 390.0000000000002 110.0 400.0000000000002 100.0 400.0000000000002 100.0 390.0000000000002 90.0 390.0000000000002 90.0 380.0000000000002 100.0 380.0000000000002 100.0 370.0000000000002 90.0 370.0000000000002 90.0 380.0000000000002 80.0 380.0000000000002 80.0 390.0000000000002 90.0 390.0000000000002 90.0 400.0000000000002 80.0 400.0000000000002 80.0 390.0000000000002 70.0 390.0000000000002 70.0 400.0000000000002 60.00000000000001 400.0000000000002 60.00000000000001 390.0000000000002 50.00000000000001 390.0000000000002 50.00000000000001 380.0000000000002 60.00000000000001 380.0000000000002 60.00000000000001 370.0000000000002 50.00000000000001 370.0000000000002 50.00000000000001 380.0000000000002 40.00000000000001 380.0000000000002 40.00000000000001 390.0000000000002 50.00000000000001 390.0000000000002 50.00000000000001 400.0000000000002 40.00000000000001 400.00000000000017 40.00000000000001 410.00000000000017 50.00000000000001 410.00000000000017 50.00000000000001 400.00000000000017 60.00000000000001 400.00000000000017 60.00000000000001 410.00000000000017 70.0 410.00000000000017 70.0 420.00000000000017 60.00000000000001 420.00000000000017 60.00000000000001 410.00000000000017 50.00000000000001 410.00000000000017 50.00000000000001 420.00000000000017 40.00000000000001 420.00000000000017 40.00000000000001 430.00000000000017 50.00000000000001 430.00000000000017 50.00000000000001 440.00000000000017 40.00000000000001 440.00000000000017 40.00000000000001 430.00000000000017 30.0 430.00000000000017 30.0 440.00000000000017 20.0 440.00000000000017 20.0 430.00000000000017 10.0 430.00000000000017 10.0 420.00000000000017 20.0 420.00000000000017 20.0 410.00000000000017 10.0 410.00000000000017 10.0 420.00000000000017 0.0 420.00000000000017 0.0 430.00000000000017 10.0 430.00000000000017 10.0 440.00000000000017 0.0 440.00000000000017 0.0 450.00000000000017 10.0 450.00000000000017 10.0 440.00000000000017 20.0 440.00000000000017 20.0 450.00000000000017 30.0 450.00000000000017 30.0 460.00000000000017 20.0 460.00000000000017 20.0 470.00000000000017 30.0 470.00000000000017 30.0 460.00000000000017 40.0 460.00000000000017 40.0 450.00000000000017 30.0 450.00000000000017 30.0 440.00000000000017 40.0 440.00000000000017 40.0 450.00000000000017 50.0 450.00000000000017 50.0 440.00000000000017 60.0 440.00000000000017 60.0 450.00000000000017 70.0 450.00000000000017 70.0 460.00000000000017 60.0 460.00000000000017 60.0 450.00000000000017 50.0 450.00000000000017 50.0 460.00000000000017 40.0 460.00000000000017 40.0 470.00000000000017 50.0 470.00000000000017 50.0 480.00000000000017 40.0 480.00000000000017 40.0 490.00000000000017 50.0 490.00000000000017 50.0 480.00000000000017 60.0 480.00000000000017 60.0 490.00000000000017 70.0 490.00000000000017 70.0 500.00000000000017 60.0 500.00000000000017 60.0 490.00000000000017 50.0 490.00000000000017 50.0 500.00000000000017 40.0 500.00000000000017 40.0 510.00000000000017 50.0 510.00000000000017 50.0 520.0000000000002 40.0 520.0000000000002 40.0 510.00000000000017 30.0 510.00000000000017 30.0 520.0000000000002 20.0 520.0000000000002 20.0 510.00000000000017 10.0 510.00000000000017 10.0 500.00000000000017 20.0 500.00000000000017 20.0 490.00000000000017 10.0 490.00000000000017 10.0 500.00000000000017 0.0 500.00000000000017 0.0 510.00000000000017 10.0 510.00000000000017 10.0 520.0000000000002 0.0 520.0000000000002 0.0 530.0000000000002 10.0 530.0000000000002 10.0 520.0000000000002 20.0 520.0000000000002 20.0 530.0000000000002 30.0 530.0000000000002 30.0 540.0000000000002 20.0 540.0000000000002 20.0 550.0000000000002 30.0 550.0000000000002 30.0 540.0000000000002 40.0 540.0000000000002 40.0 530.0000000000002 30.0 530.0000000000002 30.0 520.0000000000002 40.0 520.0000000000002 40.0 530.0000000000002 50.0 530.0000000000002 50.0 520.0000000000002 60.0 520.0000000000002 60.0 530.0000000000002 70.0 530.0000000000002 70.0 540.0000000000002 60.0 540.0000000000002 60.0 550.0000000000002 70.0 550.0000000000002 70.0 540.0000000000002 80.0 540.0000000000002 80.0 530.0000000000002 70.0 530.0000000000002 70.0 520.0000000000002 80.0 520.0000000000002 80.0 510.00000000000017 70.0 510.00000000000017 70.0 520.0000000000002 60.0 520.0000000000002 60.0 510.00000000000017 50.0 510.00000000000017 50.0 500.00000000000017 60.0 500.00000000000017 60.0 510.00000000000017 70.0 510.00000000000017 70.0 500.00000000000017 80.0 500.00000000000017 80.0 490.00000000000017 70.0 490.00000000000017 70.0 480.00000000000017 80.0 480.00000000000017 80.0 490.00000000000017 90.0 490.00000000000017 90.0 480.00000000000017 100.0 480.00000000000017 100.0 490.00000000000017 110.0 490.00000000000017 110.0 500.00000000000017 100.0 500.00000000000017 100.0 490.00000000000017 90.0 490.00000000000017 90.0 500.00000000000017 80.0 500.00000000000017 80.0 510.00000000000017 90.0 510.00000000000017 90.0 520.0000000000002 80.0 520.0000000000002 80.0 530.0000000000002 90.0 530.0000000000002 90.0 520.0000000000002 100.0 520.0000000000002 100.0 530.0000000000002 110.0 530.0000000000002 110.0 540.0000000000002 100.0 540.0000000000002 100.0 550.0000000000002 110.0 550.0000000000002 110.0 540.0000000000002 120.0 540.0000000000002 120.0 530.0000000000002 110.0 530.0000000000002 110.00000000000001 520.0000000000002 120.0 520.0000000000002 120.0 530.0000000000002 130.0 530.0000000000002 130.0 520.0000000000002 140.0 520.0000000000002 140.0 530.0000000000002 150.0 530.0000000000002 150.0 540.0000000000002 140.0 540.0000000000002 140.0 530.0000000000002 130.0 530.0000000000002 130.0 540.0000000000002 120.0 540.0000000000002 120.0 550.0000000000002 130.0 550.0000000000002 130.0 560.0000000000002 120.0 560.0000000000002 120.0 570.0000000000002 130.0 570.0000000000002 130.0 560.0000000000002 140.0 560.0000000000002 140.0 570.0000000000002 150.0 570.0000000000002 150.0 580.0000000000002 140.0 580.0000000000002 140.0 570.0000000000002 130.0 570.0000000000002 130.0 580.0000000000002 120.0 580.0000000000002 120.0 590.0000000000002 130.0 590.0000000000002 130.0 600.0000000000002 120.0 600.0000000000002 120.0 590.0000000000002 110.0 590.0000000000002 110.0 600.0000000000002 100.0 600.0000000000002 100.00000000000001 590.0000000000002 90.00000000000001 590.0000000000002 90.00000000000001 580.0000000000002 100.00000000000001 580.0000000000002 100.00000000000001 570.0000000000002 90.00000000000001 570.0000000000002 90.00000000000001 580.0000000000002 80.00000000000001 580.0000000000002 80.00000000000001 590.0000000000002 90.00000000000001 590.0000000000002 90.00000000000001 600.0000000000002 80.00000000000001 600.0000000000002 80.00000000000001 610.0000000000002 90.00000000000001 610.0000000000002 90.00000000000001 600.0000000000002 100.00000000000001 600.0000000000002 100.00000000000001 610.0000000000002 110.00000000000001 610.0000000000002 110.00000000000001 620.0000000000002 100.00000000000001 620.0000000000002 100.00000000000001 630.0000000000002 110.00000000000001 630.0000000000002 110.00000000000001 620.0000000000002 120.00000000000001 620.0000000000002 120.00000000000001 610.0000000000002 110.00000000000001 610.0000000000002 110.00000000000001 600.0000000000002 120.00000000000003 600.0000000000002 120.00000000000003 610.0000000000002 130.00000000000003 610.0000000000002 130.00000000000003 600.0000000000002 140.00000000000003 600.0000000000002 140.00000000000003 610.0000000000002 150.00000000000003 610.0000000000002 150.00000000000003 620.0000000000002 140.00000000000003 620.0000000000002 140.00000000000003 630.0000000000002 150.00000000000003 630.0000000000002 150.00000000000003 620.0000000000002 160.00000000000003 620.0000000000002 160.00000000000003 610.0000000000002 150.00000000000003 610.0000000000002 150.00000000000003 600.0000000000002 160.00000000000003 600.0000000000002 160.00000000000003 590.0000000000002 150.00000000000003 590.0000000000002 150.00000000000003 600.0000000000002 140.00000000000003 600.0000000000002 140.00000000000003 590.0000000000002 130.00000000000003 590.0000000000002 130.00000000000003 580.0000000000002 140.00000000000003 580.0000000000002 140.00000000000003 590.0000000000002 150.00000000000003 590.0000000000002 150.00000000000003 580.0000000000002 160.00000000000003 580.0000000000002 160.00000000000003 570.0000000000002 150.00000000000003 570.0000000000002 150.00000000000003 560.0000000000002 160.00000000000003 560.0000000000002 160.00000000000003 570.0000000000002 170.00000000000003 570.0000000000002 170.00000000000003 560.0000000000002 180.00000000000003 560.0000000000002 180.00000000000003 570.0000000000002 190.00000000000003 570.0000000000002 190.00000000000003 580.0000000000002 180.00000000000003 580.0000000000002 180.00000000000003 590.0000000000002 190.00000000000003 590.0000000000002 190.00000000000003 580.0000000000002 200.00000000000003 580.0000000000002 200.00000000000003 570.0000000000002 190.00000000000003 570.0000000000002 190.00000000000003 560.0000000000002 200.00000000000003 560.0000000000002 200.00000000000003 550.0000000000002 190.00000000000003 550.0000000000002 190.00000000000003 560.0000000000002 180.00000000000003 560.0000000000002 180.00000000000003 550.0000000000002 170.00000000000003 550.0000000000002 170.00000000000003 540.0000000000002 180.00000000000003 540.0000000000002 180.00000000000003 530.0000000000002 170.00000000000003 530.0000000000002 170.00000000000003 540.0000000000002 160.00000000000003 540.0000000000002 160.00000000000003 550.0000000000002 170.00000000000003 550.0000000000002 170.00000000000003 560.0000000000002 160.00000000000003 560.0000000000002 160.00000000000003 550.0000000000002 150.00000000000003 550.0000000000002 150.00000000000003 560.0000000000002 140.00000000000003 560.0000000000002 140.00000000000003 550.0000000000002 130.00000000000003 550.0000000000002 130.00000000000003 540.0000000000002 140.00000000000003 540.0000000000002 140.00000000000003 550.0000000000002 150.00000000000003 550.0000000000002 150.00000000000003 540.0000000000002 160.00000000000003 540.0000000000002 160.00000000000003 530.0000000000002 150.00000000000003 530.0000000000002 150.00000000000003 520.0000000000002 160.00000000000003 520.0000000000002 160.00000000000003 510.00000000000017 150.00000000000003 510.00000000000017 150.00000000000003 520.0000000000002 140.00000000000003 520.0000000000002 140.00000000000003 510.00000000000017 130.00000000000003 510.00000000000017 130.00000000000003 500.00000000000017 140.00000000000003 500.00000000000017 140.00000000000003 510.00000000000017 150.00000000000003 510.00000000000017 150.00000000000003 500.00000000000017 160.00000000000003 500.00000000000017 160.00000000000003 490.00000000000017 150.00000000000003 490.00000000000017 150.00000000000003 480.00000000000017 160.00000000000003 480.00000000000017 160.00000000000003 490.00000000000017 170.00000000000003 490.00000000000017 170.00000000000003 480.00000000000017 180.00000000000003 480.00000000000017 180.00000000000003 490.00000000000017 190.00000000000003 490.00000000000017 190.00000000000003 500.00000000000017 180.00000000000003 500.00000000000017 180.00000000000003 490.00000000000017 170.00000000000003 490.00000000000017 170.00000000000003 500.00000000000017 160.00000000000003 500.00000000000017 160.00000000000003 510.00000000000017 170.00000000000003 510.00000000000017 170.00000000000003 520.0000000000002 160.00000000000003 520.0000000000002 160.00000000000003 530.0000000000002 170.00000000000003 530.0000000000002 170.00000000000003 520.0000000000002 180.00000000000003 520.0000000000002 180.00000000000003 530.0000000000002 190.00000000000003 530.0000000000002 190.00000000000003 540.0000000000002 180.00000000000003 540.0000000000002 180.00000000000003 550.0000000000002 190.00000000000003 550.0000000000002 190.00000000000003 540.0000000000002 200.00000000000003 540.0000000000002 200.00000000000003 530.0000000000002 190.00000000000003 530.0000000000002 190.00000000000003 520.0000000000002 200.00000000000003 520.0000000000002 200.00000000000003 530.0000000000002 210.00000000000003 530.0000000000002 210.00000000000003 520.0000000000002 220.00000000000003 520.0000000000002 220.00000000000003 530.0000000000002 230.00000000000003 530.0000000000002 230.00000000000003 540.0000000000002 220.00000000000003 540.0000000000002 220.00000000000003 550.0000000000002 230.00000000000003 550.0000000000002 230.00000000000003 540.0000000000002 240.00000000000003 540.0000000000002 240.00000000000003 530.0000000000002 230.00000000000003 530.0000000000002 230.00000000000003 520.0000000000002 240.00000000000003 520.0000000000002 240.00000000000003 510.00000000000017 230.00000000000003 510.00000000000017 230.00000000000003 520.0000000000002 220.00000000000003 520.0000000000002 220.00000000000003 510.00000000000017 210.00000000000003 510.00000000000017 210.00000000000003 500.00000000000017 220.00000000000003 500.00000000000017 220.00000000000003 510.00000000000017 230.00000000000003 510.00000000000017 230.00000000000003 500.00000000000017 240.00000000000003 500.00000000000017 240.00000000000003 490.00000000000017 230.00000000000003 490.00000000000017 230.00000000000003 480.00000000000017 240.00000000000003 480.00000000000017 240.00000000000003 490.00000000000017 250.00000000000003 490.00000000000017 250.00000000000003 480.00000000000017 260.0 480.00000000000017 260.0 490.00000000000017 270.0 490.00000000000017 270.0 500.00000000000017 260.0 500.00000000000017 260.0 490.00000000000017 250.00000000000003 490.00000000000017 250.00000000000003 500.00000000000017 240.00000000000003 500.00000000000017 240.00000000000003 510.00000000000017 250.00000000000003 510.00000000000017 250.00000000000003 520.0000000000002 240.00000000000003 520.0000000000002 240.00000000000003 530.0000000000002 250.00000000000003 530.0000000000002 250.00000000000003 520.0000000000002 260.0 520.0000000000002 260.0 530.0000000000002 270.0 530.0000000000002 270.0 540.0000000000002 260.0 540.0000000000002 260.0 550.0000000000002 270.0 550.0000000000002 270.0 540.0000000000002 280.0 540.0000000000002 280.0 530.0000000000002 270.0 530.0000000000002 270.0 520.0000000000002 280.0 520.0000000000002 280.0 530.0000000000002 290.0 530.0000000000002 290.0 520.0000000000002 300.0 520.0000000000002 300.0 530.0000000000002 310.0 530.0000000000002 310.0 540.0000000000002 300.0 540.0000000000002 300.0 530.0000000000002 290.0 530.0000000000002 290.0 540.0000000000002 280.0 540.0000000000002 280.0 550.0000000000002 290.0 550.0000000000002 290.0 560.0000000000002 280.0 560.0000000000002 280.0 570.0000000000002 290.0 570.0000000000002 290.0 560.0000000000002 300.0 560.0000000000002 300.0 570.0000000000002 310.0 570.0000000000002 310.0 580.0000000000002 300.0 580.0000000000002 300.0 570.0000000000002 290.0 570.0000000000002 290.0 580.0000000000002 280.0 580.0000000000002 280.0 590.0000000000002 290.0 590.0000000000002 290.0 600.0000000000002 280.0 600.0000000000002 280.0 590.0000000000002 270.0 590.0000000000002 270.0 600.0000000000002 260.0 600.0000000000002 260.0 590.0000000000002 250.00000000000003 590.0000000000002 250.00000000000003 580.0000000000002 260.0 580.0000000000002 260.0 570.0000000000002 250.00000000000003 570.0000000000002 250.00000000000003 580.0000000000002 240.00000000000003 580.0000000000002 240.00000000000003 590.0000000000002 250.00000000000003 590.0000000000002 250.00000000000003 600.0000000000002 240.00000000000003 600.0000000000002 240.00000000000003 610.0000000000002 250.00000000000003 610.0000000000002 250.00000000000003 600.0000000000002 260.0 600.0000000000002 260.0 610.0000000000002 270.0 610.0000000000002 270.0 620.0000000000002 260.0 620.0000000000002 260.0 630.0000000000002 270.0 630.0000000000002 270.0 620.0000000000002 280.0 620.0000000000002 280.0 610.0000000000002 270.0 610.0000000000002 270.0 600.0000000000002 280.0 600.0000000000002 280.0 610.0000000000002 290.0 610.0000000000002 290.0 600.0000000000002 300.0 600.0000000000002 300.0 610.0000000000002 310.0 610.0000000000002 310.0 620.0000000000002 300.0 620.0000000000002 300.0 630.0000000000002 310.0 630.0000000000002 310.0 620.0000000000002 320.0 620.0000000000002 320.0 610.0000000000002 310.0 610.0000000000002 310.0 600.0000000000002 320.0 600.0000000000002 320.0 590.0000000000002 310.0 590.0000000000002 310.0 600.0000000000002 300.0 600.0000000000002 300.0 590.0000000000002 290.0 590.0000000000002 290.0 580.0000000000002 300.0 580.0000000000002 300.0 590.0000000000002 310.0 590.0000000000002 310.0 580.0000000000002 320.0 580.0000000000002 320.0 570.0000000000002 310.0 570.0000000000002 310.0 560.0000000000002 320.0 560.0000000000002 320.0 570.0000000000002 330.0 570.0000000000002 330.0 560.0000000000002 340.0 560.0000000000002 340.0 570.0000000000002 350.0 570.0000000000002 350.0 580.0000000000002 340.0 580.0000000000002 340.0 590.0000000000002 350.0 590.0000000000002 350.0 580.0000000000002 360.0 580.0000000000002 360.0 570.0000000000002 350.0 570.0000000000002 350.0 560.0000000000002 360.0 560.0000000000002 360.0 550.0000000000002 350.0 550.0000000000002 350.0 560.0000000000002 340.0 560.0000000000002 340.0 550.0000000000002 330.0 550.0000000000002 330.0 540.0000000000002 340.0 540.0000000000002 340.0 530.0000000000002 330.0 530.0000000000002 330.0 540.0000000000002 320.0 540.0000000000002 320.0 550.0000000000002 330.0 550.0000000000002 330.0 560.0000000000002 320.0 560.0000000000002 320.0 550.0000000000002 310.0 550.0000000000002 310.0 560.0000000000002 300.0 560.0000000000002 300.0 550.0000000000002 290.0 550.0000000000002 290.0 540.0000000000002 300.0 540.0000000000002 300.0 550.0000000000002 310.0 550.0000000000002 310.0 540.0000000000002 320.0 540.0000000000002 320.0 530.0000000000002 310.0 530.0000000000002 310.0 520.0000000000002 320.0 520.0000000000002 320.0 510.00000000000017 310.0 510.00000000000017 310.0 520.0000000000002 300.0 520.0000000000002 300.0 510.00000000000017 290.0 510.00000000000017 290.0 500.00000000000017 300.0 500.00000000000017 300.0 510.00000000000017 310.0 510.00000000000017 310.0 500.00000000000017 320.0 500.00000000000017 320.0 490.00000000000017 310.0 490.00000000000017 310.0 480.00000000000017 320.0 480.00000000000017 320.0 490.00000000000017 330.0 490.00000000000017 330.0 480.00000000000017 340.0 480.00000000000017 340.0 490.00000000000017 350.0 490.00000000000017 350.0 500.00000000000017 340.0 500.00000000000017 340.0 510.00000000000017 350.0 510.00000000000017 350.0 500.00000000000017 360.0 500.00000000000017 360.0 490.00000000000017 350.0 490.00000000000017 350.0 480.00000000000017 360.0 480.00000000000017 360.0 470.00000000000017 350.0 470.00000000000017 350.0 480.00000000000017 340.0 480.00000000000017 340.0 470.00000000000017 330.0 470.00000000000017 330.0 460.00000000000017 340.0 460.00000000000017 340.0 450.00000000000017 330.0 450.00000000000017 330.0 460.00000000000017 320.0 460.00000000000017 320.0 470.00000000000017 330.0 470.00000000000017 330.0 480.00000000000017 320.0 480.00000000000017 320.0 470.00000000000017 310.0 470.00000000000017 310.0 480.00000000000017 300.0 480.00000000000017 300.0 470.00000000000017 290.0 470.00000000000017 290.0 460.00000000000017 300.0 460.00000000000017 300.0 450.00000000000017 290.0 450.00000000000017 290.0 460.00000000000017 280.0 460.00000000000017 280.0 470.00000000000017 290.0 470.00000000000017 290.0 480.00000000000017 280.0 480.00000000000017 280.0 490.00000000000017 290.0 490.00000000000017 290.0 480.00000000000017 300.0 480.00000000000017 300.0 490.00000000000017 310.0 490.00000000000017 310.0 500.00000000000017 300.0 500.00000000000017 300.0 490.00000000000017 290.0 490.00000000000017 290.0 500.00000000000017 280.0 500.00000000000017 280.0 510.00000000000017 290.0 510.00000000000017 290.0 520.0000000000002 280.0 520.0000000000002 280.0 510.00000000000017 270.0 510.00000000000017 270.0 520.0000000000002 260.0 520.0000000000002 260.0 510.00000000000017 250.0 510.00000000000017 250.0 500.00000000000017 260.0 500.00000000000017 260.0 510.00000000000017 270.0 510.00000000000017 270.0 500.00000000000017 280.0 500.00000000000017 280.0 490.00000000000017 270.0 490.00000000000017 270.0 480.00000000000017 280.0 480.00000000000017 280.0 470.00000000000017 270.0 470.00000000000017 270.0 480.00000000000017 260.0 480.00000000000017 260.0 470.00000000000017 250.0 470.00000000000017 250.0 460.00000000000017 260.0 460.00000000000017 260.0 450.00000000000017 250.0 450.00000000000017 250.0 460.00000000000017 240.0 460.00000000000017 240.0 470.00000000000017 250.0 470.00000000000017 250.0 480.00000000000017 240.0 480.00000000000017 240.0 470.00000000000017 230.0 470.00000000000017 230.0 480.00000000000017 220.0 480.00000000000017 220.0 470.00000000000017 210.0 470.00000000000017 210.0 460.00000000000017 220.0 460.00000000000017 220.0 470.00000000000017 230.0 470.00000000000017 230.0 460.00000000000017 240.0 460.00000000000017 240.0 450.00000000000017 230.0 450.00000000000017 230.0 440.00000000000017 240.0 440.00000000000017 240.0 430.00000000000017 230.0 430.00000000000017 230.0 440.00000000000017 220.0 440.00000000000017 220.0 430.00000000000017 210.0 430.00000000000017 210.0 420.00000000000017 220.0 420.00000000000017 220.0 430.00000000000017 230.0 430.00000000000017 230.0 420.00000000000017 240.0 420.00000000000017 240.0 410.00000000000017 230.0 410.00000000000017 230.0 400.00000000000017 240.0 400.00000000000017 240.0 410.00000000000017 250.0 410.00000000000017 250.0 400.00000000000017 260.0 400.00000000000017 260.0 410.00000000000017 270.0 410.00000000000017 270.0 420.00000000000017 260.0 420.00000000000017 260.0 410.00000000000017 250.0 410.00000000000017 250.0 420.00000000000017 240.0 420.00000000000017 240.0 430.00000000000017 250.0 430.00000000000017 250.0 440.00000000000017 240.0 440.00000000000017 240.0 450.00000000000017 250.0 450.00000000000017 250.0 440.00000000000017 260.0 440.00000000000017 260.0 450.00000000000017 270.0 450.00000000000017 270.0 460.0000000000001 260.0 460.0000000000001 260.0 470.0000000000001 270.0 470.0000000000001 270.0 460.0000000000001 280.0 460.0000000000001 280.0 450.0000000000001 270.0 450.0000000000001 270.0 440.0000000000001 280.0 440.0000000000001 280.0 450.0000000000001 290.0 450.0000000000001 290.0 440.0000000000001 300.0 440.0000000000001 300.0 450.0000000000001 310.0 450.0000000000001 310.0 460.0000000000001 300.0 460.0000000000001 300.0 470.0000000000001 310.0 470.0000000000001 310.0 460.0000000000001 320.0 460.0000000000001 320.0 450.0000000000001 310.0 450.0000000000001 310.0 440.0000000000001 320.0 440.0000000000001 320.0 430.0000000000001 310.0 430.0000000000001 310.0 440.0000000000001 300.0 440.0000000000001 300.0 430.0000000000001 290.0 430.0000000000001 290.0 420.0000000000001 300.0 420.0000000000001 300.0 430.0000000000001 310.0 430.0000000000001 310.0 420.0000000000001 320.0 420.0000000000001 320.0 410.0000000000001 310.0 410.0000000000001 310.0 400.0000000000001 320.0 400.0000000000001 320.0 410.0000000000001 330.0 410.0000000000001 330.0 400.0000000000001 340.0 400.0000000000001 340.0 410.0000000000001 350.0 410.0000000000001 350.0 420.0000000000001 340.0 420.0000000000001 340.0 430.0000000000001 350.0 430.0000000000001 350.0 420.0000000000001 360.0 420.0000000000001 360.0 410.0000000000001 350.0 410.0000000000001 350.0 400.0000000000001 360.0 400.0000000000001 360.0 390.0000000000001 350.0 390.0000000000001 350.0 400.0000000000001 340.0 400.0000000000001 340.0 390.0000000000001 330.0 390.0000000000001 330.0 380.0000000000001 340.0 380.0000000000001 340.0 370.0000000000001 330.0 370.0000000000001 330.0 380.0000000000001 320.0 380.0000000000001 320.0 390.0000000000001 330.0 390.0000000000001 330.0 400.0000000000001 320.0 400.0000000000001 320.0 390.0000000000001 310.0 390.0000000000001 310.0 400.0000000000001 300.0 400.0000000000001 300.0 390.0000000000001 290.0 390.0000000000001 290.0 380.0000000000001 300.0 380.0000000000001 300.0 390.0000000000001 310.0 390.0000000000001 310.0 380.0000000000001 320.0 380.0000000000001 320.0 370.0000000000001 310.0 370.0000000000001 310.0 360.0000000000001 320.0 360.0000000000001 320.0 350.0000000000001 310.0 350.0000000000001 310.0 360.0000000000001 300.0 360.0000000000001 300.0 350.0000000000001 290.0 350.0000000000001 290.0 340.0000000000001 300.0 340.0000000000001 300.0 350.0000000000001 310.0 350.0000000000001 310.0 340.0000000000001 320.0 340.0000000000001 320.0 330.0000000000001 310.0 330.0000000000001 310.0 320.0000000000001 320.0 320.0000000000001 320.0 330.0000000000001 330.0 330.0000000000001 330.0 320.0000000000001 340.0 320.0000000000001 340.0 330.0000000000001 350.0 330.0000000000001 350.0 340.0000000000001 340.0 340.0000000000001 340.0 330.0000000000001 330.0 330.0000000000001 330.0 340.0000000000001 320.0 340.0000000000001 320.0 350.0000000000001 330.0 350.0000000000001 330.0 360.0000000000001 320.0 360.0000000000001 320.0 370.0000000000001 330.0 370.0000000000001 330.0 360.0000000000001 340.0 360.0000000000001 340.0 370.0000000000001 350.0 370.0000000000001 350.0 380.0000000000001 340.0 380.0000000000001 340.0 390.0000000000001 350.0 390.0000000000001 350.0 380.0000000000001 360.0 380.0000000000001 360.0 370.0000000000001 350.0 370.0000000000001 350.0 360.0000000000001 360.0 360.0000000000001 360.0 370.0000000000001 370.0 370.0000000000001 370.0 360.0000000000001 380.0 360.0000000000001 380.0 370.0000000000001 390.0 370.0000000000001 390.0 380.0000000000001 380.0 380.0000000000001 380.0 390.0000000000001 390.0 390.0000000000001 390.0 380.0000000000001 400.0 380.0000000000001 400.0 370.0000000000001 390.0 370.0000000000001 390.0 360.0000000000001 400.0 360.0000000000001 400.0 350.0000000000001 390.0 350.0000000000001 390.0 360.0000000000001 380.0 360.0000000000001 380.0 350.0000000000001 370.0 350.0000000000001 370.0 340.0000000000001 380.0 340.0000000000001 380.0 350.0000000000001 390.0 350.0000000000001 390.0 340.0000000000001 400.0 340.0000000000001 400.0 330.0000000000001 390.0 330.0000000000001 390.0 320.0000000000001 400.0 320.0000000000001 400.0 330.0000000000001 410.0 330.0000000000001 410.0 320.0000000000001 420.0 320.0000000000001 420.0 330.0000000000001 430.0 330.0000000000001 430.0 340.0000000000001 420.0 340.0000000000001 420.0 330.0000000000001 410.0 330.0000000000001 410.0 340.0000000000001 400.0 340.0000000000001 400.0 350.0000000000001 410.0 350.0000000000001 410.0 360.0000000000001 400.0 360.0000000000001 400.0 370.0000000000001 410.0 370.0000000000001 410.0 360.0000000000001 420.0 360.0000000000001 420.0 370.0000000000001 430.0 370.0000000000001 430.0 380.0000000000001 420.0 380.0000000000001 420.0 390.0000000000001 430.0 390.0000000000001 430.0 380.0000000000001 440.0 380.0000000000001 440.0 370.0000000000001 430.0 370.0000000000001 430.0 360.0000000000001 440.0 360.0000000000001 440.0 370.0000000000001 450.0 370.0000000000001 450.0 360.0000000000001 460.0 360.0000000000001 460.0 370.0000000000001 470.0 370.0000000000001 470.0 380.0000000000001 460.0 380.0000000000001 460.0 370.0000000000001 450.0 370.0000000000001 450.0 380.0000000000001 440.0 380.0000000000001 440.0 390.0000000000001 450.0 390.0000000000001 450.0 400.0000000000001 440.0 400.0000000000001 440.0 410.0000000000001 450.0 410.0000000000001 450.0 400.0000000000001 460.0 400.0000000000001 460.0 410.0000000000001 470.0 410.0000000000001 470.0 420.0000000000001 460.0 420.0000000000001 460.0 410.0000000000001 450.0 410.0000000000001 450.0 420.0000000000001 440.0 420.0000000000001 440.0 430.0000000000001 450.0 430.0000000000001 450.0 440.0000000000001 440.0 440.0000000000001 440.0 430.0000000000001 430.0 430.0000000000001 430.0 440.0000000000001 420.0 440.00000000000006 420.0 430.00000000000006 410.0 430.00000000000006 410.0 420.00000000000006 420.0 420.00000000000006 420.0 410.00000000000006 410.0 410.00000000000006 410.0 420.00000000000006 400.0 420.00000000000006 400.0 430.00000000000006 410.0 430.00000000000006 410.0 440.00000000000006 400.0 440.00000000000006 400.0 450.00000000000006 410.0 450.00000000000006 410.0 440.00000000000006 420.0 440.00000000000006 420.0 450.00000000000006 430.0 450.00000000000006 430.0 460.00000000000006 420.0 460.00000000000006 420.0 470.00000000000006 430.0 470.00000000000006 430.0 460.00000000000006 440.0 460.00000000000006 440.0 450.00000000000006 430.0 450.00000000000006 430.0 440.00000000000006 440.0 440.00000000000006 440.0 450.00000000000006 450.0 450.00000000000006 450.0 440.00000000000006 460.0 440.00000000000006 460.0 450.00000000000006 470.0 450.00000000000006 470.0 460.00000000000006 460.0 460.00000000000006 460.0 470.00000000000006 470.0 470.00000000000006 470.0 460.00000000000006 480.0 460.00000000000006 480.0 450.00000000000006 470.0 450.00000000000006 470.0 440.00000000000006 480.0 440.00000000000006 480.0 430.00000000000006 470.0 430.00000000000006 470.0 440.00000000000006 460.0 440.00000000000006 460.0 430.00000000000006 450.0 430.00000000000006 450.0 420.00000000000006 460.0 420.00000000000006 460.0 430.00000000000006 470.0 430.00000000000006 470.0 420.00000000000006 480.0 420.00000000000006 480.0 410.00000000000006 470.0 410.00000000000006 470.0 400.00000000000006 480.0 400.00000000000006 480.0 410.00000000000006 490.0 410.00000000000006 490.0 400.00000000000006 500.0 400.00000000000006 500.0 410.00000000000006 510.0 410.00000000000006 510.0 420.00000000000006 500.0 420.00000000000006 500.0 430.00000000000006 510.0 430.00000000000006 510.0 420.00000000000006 520.0 420.00000000000006 520.0 410.00000000000006 510.0 410.00000000000006 510.0 400.00000000000006 520.0 400.00000000000006 520.0 390.00000000000006 510.0 390.00000000000006 510.0 400.00000000000006 500.0 400.00000000000006 500.0 390.00000000000006 490.0 390.00000000000006 490.0 380.00000000000006 500.0 380.00000000000006 500.0 370.00000000000006 490.0 370.00000000000006 490.0 380.00000000000006 480.0 380.00000000000006 480.0 390.00000000000006 490.0 390.00000000000006 490.0 400.00000000000006 480.0 400.00000000000006 480.0 390.00000000000006 470.0 390.00000000000006 470.0 400.00000000000006 460.0 400.00000000000006 460.0 390.00000000000006 450.0 390.0 450.0 380.0 460.0 380.0 460.0 390.0 470.0 390.0 470.0 380.0 480.0 380.0 480.0 370.0 470.0 370.0 470.0 360.0 480.0 360.0 480.0 350.0 470.0 350.0 470.0 360.0 460.0 360.0 460.0 350.0 450.0 350.0 450.0 340.0 460.0 340.0 460.0 350.0 470.0 350.0 470.0 340.0 480.0 340.0 480.0 330.0 470.0 330.0 470.0 320.0 480.0 320.0 480.0 330.0 490.0 330.0 490.0 320.0 500.0 320.0 500.0 330.0 510.0 330.0 510.0 340.0 500.0 340.0 500.0 350.0 510.0 350.0 510.0 340.0 520.0 340.0 520.0 330.0 510.0 330.0 510.0 320.0 520.0 320.0 520.0 310.0 510.0 310.0 510.0 320.0 500.0 320.0 500.0 310.0 490.0 310.0 490.0 300.0 500.0 300.0 500.0 290.0 490.0 290.0 490.0 300.0 480.0 300.0 480.0 310.0 490.0 310.0 490.0 320.0 480.0 320.0 480.0 310.0 470.0 310.0 470.0 320.0 460.0 320.0 460.0 310.0 450.0 310.0 450.0 300.0 460.0 300.0 460.0 290.0 450.0 290.0 450.0 300.0 440.0 300.0 440.0 310.0 450.0 310.0 450.0 320.0 440.0 320.0 440.0 330.0 450.0 330.0 450.0 320.0 460.0 320.0 460.0 330.0 470.0 330.0 470.0 340.0 460.0 340.0 460.0 330.0 450.0 330.0 450.0 340.0 440.0 340.0 440.0 350.0 450.0 350.0 450.0 360.0 440.0 360.0 440.0 350.0 430.0 350.0 430.0 360.0 420.0 360.0 420.0 350.0 410.0 350.0 410.0 340.0 420.0 340.0 420.0 350.0 430.0 350.0 430.0 340.0 440.0 340.0 440.0 330.0 430.0 330.0 430.0 320.0 440.0 320.0 440.0 310.0 430.0 310.0 430.0 320.0 420.0 320.0 420.0 310.0 410.0 310.0 410.0 300.0 420.0 300.0 420.0 290.0 410.0 290.0 410.0 300.0 400.0 300.0 400.0 310.0 410.0 310.0 410.0 320.0 400.0 320.0 400.0 310.0 390.0 310.0 390.0 320.0 380.0 320.0 380.0 310.0 370.0 310.0 370.0 300.0 380.0 300.0 380.0 310.0 390.0 310.0 390.0 300.0 400.0 300.0 400.0 290.0 390.0 290.0 390.0 280.0 400.0 280.0 400.0 270.0 390.0 270.0 390.0 280.0 380.0 280.0 380.0 270.0 370.0 270.0 370.0 260.0 380.0 260.0 380.0 270.0 390.0 270.0 390.0 260.0 400.0 260.0 400.0 250.00000000000003 390.0 250.00000000000003 390.0 240.00000000000003 400.0 240.00000000000003 400.0 250.00000000000003 410.0 250.00000000000003 410.0 240.00000000000003 420.0 240.00000000000003 420.0 250.00000000000003 430.0 250.00000000000003 430.0 260.0 420.0 260.0 420.0 270.0 430.0 270.0 430.0 260.0 440.0 260.0 440.0 250.00000000000003 430.0 250.00000000000003 430.0 240.00000000000003 440.0 240.00000000000003 440.0 230.00000000000003 430.0 230.00000000000003 430.0 240.00000000000003 420.0 240.00000000000003 420.0 230.00000000000003 410.0 230.00000000000003 410.0 220.00000000000003 420.0 220.00000000000003 420.0 210.00000000000003 410.0 210.00000000000003 410.0 220.00000000000003 400.0 220.00000000000003 400.0 230.00000000000003 410.0 230.00000000000003 410.0 240.00000000000003 400.0 240.00000000000003 400.0 230.00000000000003 390.0 230.00000000000003 390.0 240.00000000000003 380.0 240.00000000000003 380.0 230.00000000000003 370.0 230.00000000000003 370.0 220.00000000000003 380.0 220.00000000000003 380.0 210.00000000000003 370.0 210.00000000000003 370.0 220.00000000000003 360.0 220.00000000000003 360.0 230.00000000000003 370.0 230.00000000000003 370.0 240.00000000000003 360.0 240.00000000000003 360.0 250.00000000000003 370.0 250.00000000000003 370.0 240.00000000000003 380.0 240.00000000000003 380.0 250.00000000000003 390.0 250.00000000000003 390.0 260.0 380.0 260.0 380.0 250.00000000000003 370.0 250.00000000000003 370.0 260.0 360.0 260.0 360.0 270.0 370.0 270.0 370.0 280.0 360.0 280.0 360.0 270.0 350.0 270.0 350.0 280.0 340.0 280.0 340.0 270.0 330.0 270.0 330.0 260.0 340.0 260.0 340.0 250.00000000000003 330.0 250.00000000000003 330.0 260.0 320.0 260.0 320.0 270.0 330.0 270.0 330.0 280.0 320.0 280.0 320.0 290.0 330.0 290.0 330.0 280.0 340.0 280.0 340.0 290.0 350.0 290.0 350.0 300.0 340.0 300.0 340.0 310.0 350.0 310.0 350.0 300.0 360.0 300.0 360.0 290.0 350.0 290.0 350.0 280.0 360.0 280.0 360.0 290.0 370.0 290.0 370.0 280.0 380.0 280.0 380.0 290.0 390.0 290.0 390.0 300.0 380.0 300.0 380.0 290.0 370.0 290.0 370.0 300.0 360.0 300.0 360.0 310.0 370.0 310.0 370.0 320.0 360.0 320.0 360.0 330.0 370.0 330.0 370.0 320.0 380.0 320.0 380.0 330.0 390.0 330.0 390.0 340.0 380.0 340.0 380.0 330.0 370.0 330.0 370.0 340.0 360.0 340.0 360.0 350.0 370.0 350.0 370.0 360.0 360.0 360.0 360.0 350.0 350.0 350.0 350.0 360.0 340.0 360.0 340.0 350.0 330.0 350.0 330.0 340.0 340.0 340.0 340.0 350.0 350.0 350.0 350.0 340.0 360.0 340.0 360.0 330.0 350.0 330.0 350.0 320.0 360.0 320.0 360.0 310.0 350.0 310.0 350.0 320.0 340.0 320.0 340.0 310.0 330.0 310.0 330.0 300.0 340.0 300.0 340.0 290.0 330.0 290.0 330.0 300.0 320.0 300.0 320.0 310.0 330.0 310.0 330.0 320.0 320.0 320.0 320.0 310.0 310.0 310.0 310.0 320.0 300.0 320.0 300.0 310.0 290.0 310.0 290.0 300.0 300.0 300.0 300.0 290.0 290.0 290.0 290.0 300.0 280.0 300.0 280.0 310.0 290.0 310.0 290.0 320.0 280.0 320.0 280.0 330.0 290.0 330.0 290.0 320.0 300.0 320.0 300.0 330.0 310.0 330.0 310.0 340.0 300.0 340.0 300.0 330.0 290.0 330.0 290.0 340.0 280.0 340.0 280.0 350.0 290.0 350.0 290.0 360.0 280.0 360.0 280.0 350.0 270.0 350.0 270.0 360.0 260.0 360.0 260.0 350.0 250.0 350.0 250.0 340.0 260.0 340.0 260.0 350.0 270.0 350.0 270.0 340.0 280.0 340.0 280.0 330.0 270.0 330.0 270.0 320.0 280.0 320.0 280.0 310.0 270.0 310.0 270.0 320.0 260.0 320.0 260.0 310.0 250.0 310.0 250.0 300.0 260.0 300.0 260.0 290.0 250.0 290.0 250.0 300.0 240.0 300.0 240.0 310.0 250.0 310.0 250.0 320.0 240.0 320.0 240.0 310.0 230.0 310.0 230.0 320.0 220.0 320.0 220.0 310.0 210.0 310.0 210.0 300.0 220.0 300.0 220.0 310.0 230.0 310.0 230.0 300.0 240.0 300.0 240.0 290.0 230.0 290.0 230.0 280.0 240.0 280.0 240.0 270.0 230.0 270.0 230.0 280.0 220.0 280.0 220.0 270.0 210.0 270.0 210.0 260.0 220.0 260.0 220.0 270.0 230.0 270.0 230.0 260.0 240.0 260.0 240.0 250.00000000000003 230.0 250.00000000000003 230.0 240.00000000000003 240.0 240.00000000000003 240.0 250.00000000000003 250.0 250.00000000000003 250.0 240.00000000000003 260.0 240.00000000000003 260.0 250.00000000000003 270.0 250.00000000000003 270.0 260.0 260.0 260.0 260.0 250.00000000000003 250.0 250.00000000000003 250.0 260.0 240.0 260.0 240.0 270.0 250.0 270.0 250.0 280.0 240.0 280.0 240.0 290.0 250.0 290.0 250.0 280.0 260.0 280.0 260.0 290.0 270.0 290.0 270.0 300.0 260.0 300.0 260.0 310.0 270.0 310.0 270.0 300.0 280.0 300.0 280.0 290.0 270.0 290.0 270.0 280.0 280.0 280.0 280.0 290.0 290.0 290.0 290.0 280.0 300.0 280.0 300.0 290.0 310.0 290.0 310.0 300.0 300.0 300.0 300.0 310.0 310.0 310.0 310.0 300.0 320.0 300.0 320.0 290.0 310.0 290.0 310.0 280.0 320.0 280.0 320.0 270.0 310.0 270.0 310.0 280.0 300.0 280.0 300.0 270.0 290.0 270.0 290.0 260.0 300.0 260.0 300.0 270.0 310.0 270.0 310.0 260.0 320.0 260.0 320.0 250.00000000000003 310.0 250.00000000000003 310.0 240.00000000000003 320.0 240.00000000000003 320.0 250.00000000000003 330.0 250.00000000000003 330.0 240.00000000000003 340.0 240.00000000000003 340.0 250.00000000000003 350.0 250.00000000000003 350.0 260.0 340.0 260.0 340.0 270.0 350.0 270.0 350.0 260.0 360.0 260.0 360.0 250.00000000000003 350.0 250.00000000000003 350.0 240.00000000000003 360.0 240.00000000000003 360.0 230.00000000000003 350.0 230.00000000000003 350.0 240.00000000000003 340.0 240.00000000000003 340.0 230.00000000000003 330.0 230.00000000000003 330.0 220.00000000000003 340.0 220.00000000000003 340.0 210.00000000000003 330.0 210.00000000000003 330.0 220.00000000000003 320.0 220.00000000000003 320.0 230.00000000000003 330.0 230.00000000000003 330.0 240.00000000000003 320.0 240.00000000000003 320.0 230.00000000000003 310.0 230.00000000000003 310.0 240.00000000000003 300.0 240.00000000000003 300.0 230.00000000000003 290.0 230.00000000000003 290.0 220.00000000000003 300.0 220.00000000000003 300.0 230.00000000000003 310.0 230.00000000000003 310.0 220.00000000000003 320.0 220.00000000000003 320.0 210.00000000000003 310.0 210.00000000000003 310.0 200.00000000000003 320.0 200.00000000000003 320.0 190.00000000000003 310.0 190.00000000000003 310.0 200.00000000000003 300.0 200.00000000000003 300.0 190.00000000000003 290.0 190.00000000000003 290.0 180.00000000000003 300.0 180.00000000000003 300.0 190.00000000000003 310.0 190.00000000000003 310.0 180.00000000000003 320.0 180.00000000000003 320.0 170.00000000000003 310.0 170.00000000000003 310.0 160.0 320.0 160.0 320.0 170.0 330.0 170.0 330.0 160.0 340.0 160.0 340.0 170.0 350.0 170.0 350.0 180.0 340.0 180.0 340.0 190.0 350.0 190.0 350.0 180.0 360.0 180.0 360.0 170.0 350.0 170.0 350.0 160.0 360.0 160.0 360.0 150.0 350.0 150.0 350.0 160.0 340.0 160.0 340.0 150.0 330.0 150.0 330.0 140.0 340.0 140.0 340.0 130.0 330.0 130.0 330.0 140.0 320.0 140.0 320.0 150.0 330.0 150.0 330.0 160.0 320.0 160.0 320.0 150.0 310.0 150.0 310.0 160.0 300.0 160.0 300.0 150.0 290.0 150.0 290.0 140.0 300.0 140.0 300.0 130.0 290.0 130.0 290.0 140.0 280.0 140.0 280.0 150.0 290.0 150.0 290.0 160.0 280.0 160.0 280.0 170.0 290.0 170.0 290.0 160.0 300.0 160.0 300.0 170.0 310.0 170.0 310.0 180.0 300.0 180.0 300.0 170.0 290.0 170.0 290.0 180.0 280.0 180.0 280.0 190.0 290.0 190.0 290.0 200.0 280.0 200.0 280.0 190.0 270.0 190.0 270.0 200.0 260.0 200.0 260.0 190.0 250.0 190.0 250.0 180.0 260.0 180.0 260.0 190.0 270.0 190.0 270.0 180.0 280.0 180.0 280.0 170.0 270.0 170.0 270.0 160.0 280.0 160.0 280.0 150.0 270.0 150.0 270.0 160.0 260.0 160.0 260.0 150.0 250.0 150.0 250.0 140.0 260.0 140.0 260.0 130.0 250.0 130.0 250.0 140.0 240.0 140.0 240.0 150.0 250.0 150.0 250.0 160.0 240.0 160.0 240.0 150.0 230.0 150.0 230.0 160.0 220.0 160.0 220.0 150.0 210.0 150.0 210.0 140.0 220.0 140.0 220.0 150.0 230.0 150.0 230.0 140.0 240.0 140.0 240.0 130.0 230.0 130.0 230.0 120.0 240.0 120.0 240.0 110.0 230.0 110.0 230.0 120.0 220.0 120.0 220.0 110.0 210.0 110.0 210.0 100.0 220.0 100.0 220.0 110.0 230.0 110.0 230.0 100.0 240.0 100.0 240.0 90.0 230.0 90.0 230.0 80.0 240.0 80.0 240.0 90.0 250.0 90.0 250.0 80.0 260.0 80.0 260.0 90.0 270.0 90.0 270.0 100.0 260.0 100.0 260.0 90.0 250.0 90.0 250.0 100.0 240.0 100.0 240.0 110.0 250.0 110.0 250.0 120.0 240.0 120.0 240.0 130.0 250.0 130.0 250.0 120.0 260.0 120.0 260.0 130.0 270.0 130.0 270.0 140.0 260.0 140.0 260.0 150.0 270.0 150.0 270.0 140.0 280.0 140.0 280.0 130.0 270.0 130.0 270.0 120.0 280.0 120.0 280.0 130.0 290.0 130.0 290.0 120.0 300.0 120.0 300.0 130.0 310.0 130.0 310.0 140.0 300.0 140.0 300.0 150.0 310.0 150.0 310.0 140.0 320.0 140.0 320.0 130.0 310.0 130.0 310.0 120.0 320.0 120.0 320.0 110.0 310.0 110.0 310.0 120.0 300.0 120.0 300.0 110.0 290.0 110.0 290.0 100.0 300.0 100.0 300.0 110.0 310.0 110.0 310.0 100.0 320.0 100.0 320.0 90.0 310.0 90.0 310.0 80.0 320.0 80.0 320.0 90.0 330.0 90.0 330.0 80.0 340.0 80.0 340.0 90.0 350.0 90.0 350.0 100.0 340.0 100.0 340.0 110.0 350.0 110.0 350.0 100.0 360.0 100.0 360.0 90.0 350.0 90.0 350.0 80.0 360.0 80.0 360.0 70.0 350.0 70.0 350.0 80.0 340.0 80.0 340.0 70.0 330.0 70.0 330.0 60.0 340.0 60.0 340.0 50.0 330.0 50.0 330.0 60.0 320.0 60.0 320.0 70.0 330.0 70.0 330.0 80.0 320.0 80.0 320.0 70.0 310.0 70.0 310.0 80.0 300.0 80.0 300.0 70.0 290.0 70.0 290.0 60.0 300.0 60.0 300.0 70.0 310.0 70.0 310.0 60.0 320.0 60.0 320.0 50.0 310.0 50.0 310.0 40.0 320.0 40.0 320.0 30.0 310.0 30.0 310.0 40.0 300.0 40.0 300.0 30.0 290.0 30.0 290.0 20.0 300.0 20.0 300.0 30.0 310.0 30.0 310.0 20.0 320.0 20.0 320.0 10.0 310.0 10.0 310.0 0.0 320.0 0.0 320.0 10.0 330.0 10.0 330.0 0.0 340.0 0.0 340.0 10.0 350.0 10.0 350.0 20.0 340.0 20.0 340.0 10.0 330.0 10.0 330.0 20.0 320.0 20.0 320.0 30.0 330.0 30.0 330.0 40.0 320.0 40.0 320.0 50.0 330.0 50.0 330.0 40.0 340.0 40.0 340.0 50.0 350.0 50.0 350.0 60.0 340.0 60.0 340.0 70.0 350.0 70.0 350.0 60.0 360.0 60.0 360.0 50.0 350.0 50.0 350.0 40.0 360.0 40.0 360.0 50.0 370.0 50.0 370.0 40.0 380.0 40.0 380.0 50.0 390.0 50.0 390.0 60.0 380.0 60.0 380.0 70.0 390.0 70.0 390.0 60.0 400.0 60.0 400.0 50.0 390.0 50.0 390.0 40.0 400.0 40.0 400.0 30.0 390.0 30.0 390.0 40.0 380.0 40.0 380.0 30.0 370.0 30.0 370.0 20.0 380.0 20.0 380.0 30.0 390.0 30.0 390.0 20.0 400.0 20.0 400.0 10.0 390.0 10.0 390.0 0.0 400.0 0.0 400.0 10.0 410.0 10.0 410.0 0.0 420.0 0.0 420.0 10.0 430.0 10.0 430.0 20.0 420.0 20.0 420.0 10.0 410.0 10.0 410.0 20.0 400.0 20.0 400.0 30.0 410.0 30.0 410.0 40.0 400.0 40.0 400.0 50.0 410.0 50.0 410.0 40.0 420.0 40.0 420.0 50.0 430.0 50.0 430.0 60.0 420.0 60.0 420.0 70.0 430.0 70.0 430.0 60.0 440.0 60.0 440.0 50.0 430.0 50.0 430.0 40.0 440.0 40.0 440.0 50.0 450.0 50.0 450.0 40.0 460.0 40.0 460.0 50.0 470.0 50.0 470.0 60.0 460.0 60.0 460.0 50.0 450.0 50.0 450.0 60.0 440.0 60.0 440.0 70.0 450.0 70.0 450.0 80.0 440.0 80.0 440.0 90.0 450.0 90.0 450.0 80.0 460.0 80.0 460.0 90.0 470.0 90.0 470.0 100.0 460.0 100.0 460.0 90.0 450.0 90.0 450.0 100.0 440.0 100.0 440.0 110.0 450.0 110.0 450.0 120.0 440.0 120.0 440.0 110.0 430.0 110.0 430.0 120.0 420.0 120.0 420.0 110.0 410.0 110.0 410.0 100.0 420.0 100.0" fill="transparent"/></svg>
