<svg xmlns="http://www.w3.org/2000/svg" width="360.0" height="140.00000000000003"><polyline stroke="black" stroke-width="1" points="229.99999999999997 110.00000000000009 229.99999999999997 120.00000000000009 239.99999999999997 120.00000000000009 239.99999999999997 110.00000000000009 249.99999999999997 110.00000000000009 249.99999999999997 100.00000000000009 239.99999999999997 100.00000000000009 239.99999999999997 90.00000000000009 249.99999999999997 90.00000000000009 249.99999999999997 80.00000000000009 239.99999999999997 80.00000000000009 239.99999999999997 90.00000000000009 229.99999999999997 90.00000000000009 229.99999999999997 80.00000000000009 219.99999999999997 80.00000000000007 219.99999999999997 70.00000000000007 229.99999999999997 70.00000000000007 229.99999999999997 60.00000000000007 219.99999999999997 60.00000000000007 219.99999999999997 70.00000000000007 209.99999999999997 70.00000000000007 209.99999999999997 80.00000000000007 219.99999999999997 80.00000000000007 219.99999999999997 90.00000000000007 209.99999999999997 90.00000000000007 209.99999999999997 80.00000000000007 199.99999999999997 80.00000000000006 199.99999999999997 90.00000000000006 189.99999999999997 90.00000000000006 189.99999999999997 80.00000000000006 179.99999999999997 80.00000000000006 179.99999999999997 70.00000000000006 189.99999999999997 70.00000000000006 189.99999999999997 80.00000000000006 199.99999999999997 80.00000000000006 199.99999999999997 70.00000000000006 209.99999999999997 70.00000000000006 209.99999999999997 60.00000000000006 199.99999999999997 60.00000000000006 199.99999999999997 50.00000000000006 209.99999999999997 50.00000000000006 209.99999999999997 40.00000000000006 199.99999999999997 40.00000000000006 199.99999999999997 50.00000000000006 189.99999999999997 50.00000000000006 189.99999999999997 40.00000000000006 179.99999999999997 40.00000000000006 179.99999999999997 30.000000000000057 189.99999999999997 30.000000000000057 189.99999999999997 40.00000000000006 199.99999999999997 40.00000000000006 199.99999999999997 30.000000000000057 209.99999999999997 30.000000000000057 209.99999999999997 20.000000000000057 199.99999999999997 20.000000000000057 199.99999999999997 10.000000000000057 209.99999999999997 10.000000000000057 209.99999999999997 20.000000000000057 219.99999999999997 20.000000000000057 219.99999999999997 10.000000000000057 229.99999999999997 10.000000000000057 229.99999999999997 20.000000000000057 239.99999999999997 20.000000000000057 249.99999999999997 20.000000000000057 260.0 20.000000000000057 260.0 30.000000000000057 270.0 30.000000000000057 270.0 20.000000000000057 260.0 20.000000000000057 260.0 10.000000000000057 249.99999999999997 10.000000000000057 249.99999999999997 20.000000000000057 239.99999999999997 20.000000000000057 239.99999999999997 10.000000000000057 229.99999999999997 10.000000000000057 229.99999999999997 20.000000000000057 239.99999999999997 20.000000000000057 239.99999999999997 30.000000000000057 229.99999999999997 30.000000000000057 229.99999999999997 40.00000000000006 219.99999999999997 40.00000000000006 219.99999999999997 30.000000000000057 209.99999999999997 30.000000000000057 209.99999999999997 40.00000000000006 219.99999999999997 40.00000000000006 219.99999999999997 50.00000000000006 229.99999999999997 50.00000000000006 229.99999999999997 40.00000000000006 239.99999999999997 40.00000000000006 239.99999999999997 50.00000000000006 229.99999999999997 50.00000000000006 229.99999999999997 60.00000000000006 239.99999999999997 60.00000000000006 239.99999999999997 70.00000000000006 229.99999999999997 70.00000000000006 229.99999999999997 80.00000000000006 219.99999999999997 80.00000000000006 220.0 70.00000000000006 210.0 70.00000000000006 210.0 80.00000000000006 220.0 80.00000000000006 220.0 90.00000000000006 230.0 90.00000000000006 230.0 80.00000000000006 240.0 80.00000000000006 240.0 90.00000000000006 250.0 90.00000000000006 250.0 80.00000000000006 240.0 80.00000000000006 240.0 70.00000000000006 250.0 70.00000000000006 250.0 80.00000000000006 250.0 90.00000000000006 260.0 90.00000000000006 270.0 90.00000000000006 270.0 80.00000000000006 260.0 80.00000000000006 260.0 70.00000000000006 250.0 70.00000000000006 250.0 80.00000000000006 240.0 80.00000000000006 240.0 70.00000000000006 250.0 70.00000000000006 250.0 60.00000000000006 240.0 60.00000000000006 240.0 50.00000000000006 250.0 50.00000000000006 250.0 40.00000000000006 260.0 40.00000000000006 260.0 50.00000000000006 250.0 50.00000000000006 250.0 60.00000000000006 260.0 60.00000000000006 260.0 70.00000000000006 270.0 70.00000000000006 270.0 60.00000000000006 280.0 60.00000000000006 280.0 70.00000000000006 290.0 70.00000000000006 290.0 60.00000000000006 280.0 60.00000000000006 280.0 50.00000000000006 290.0 50.00000000000006 290.0 40.00000000000006 300.0 40.00000000000006 300.0 50.00000000000006 310.0 50.00000000000006 310.0 40.00000000000006 300.0 40.00000000000006 300.0 30.000000000000057 290.0 30.000000000000057 290.0 40.00000000000006 280.0 40.00000000000006 280.0 30.000000000000057 290.0 30.000000000000057 290.0 20.000000000000057 280.0 20.000000000000057 280.0 10.000000000000057 290.0 10.000000000000057 290.0 5.684341886080802e-14 300.0 5.684341886080802e-14 300.0 10.000000000000057 290.0 10.000000000000057 290.0 20.000000000000057 300.0 20.000000000000057 300.0 30.000000000000057 300.0 40.00000000000006 300.0 50.00000000000006 310.0 50.00000000000006 310.0 60.00000000000006 300.0 60.00000000000006 300.0 70.00000000000006 310.0 70.00000000000006 310.0 60.00000000000006 320.0 60.00000000000006 320.0 70.00000000000006 330.0 70.00000000000006 330.0 80.00000000000006 320.0 80.00000000000006 310.0 80.00000000000006 300.0 80.00000000000004 300.0 90.00000000000004 310.0 90.00000000000004 310.0 100.00000000000004 320.0 100.00000000000004 320.0 90.00000000000004 330.0 90.00000000000004 330.0 100.00000000000004 320.0 100.00000000000004 320.0 110.00000000000004 330.0 110.00000000000004 330.0 120.00000000000004 320.0 120.00000000000004 320.0 130.00000000000006 310.0 130.00000000000003 310.0 120.00000000000004 300.0 120.00000000000004 300.0 130.00000000000003 310.0 130.00000000000003 310.0 140.00000000000003 320.0 140.00000000000003 320.0 130.00000000000003 330.0 130.00000000000003 330.0 140.00000000000003 340.0 140.00000000000003 340.0 130.00000000000003 330.0 130.00000000000003 330.0 120.00000000000003 340.0 120.00000000000003 340.0 110.00000000000003 350.0 110.00000000000003 350.0 120.00000000000003 360.0 120.00000000000003 360.0 110.00000000000003 350.0 110.00000000000003 350.0 100.00000000000003 340.0 100.00000000000003 340.0 110.00000000000003 330.0 110.00000000000003 330.0 100.00000000000003 340.0 100.00000000000003 340.0 90.00000000000003 330.0 90.00000000000003 330.0 80.00000000000003 340.0 80.00000000000003 340.0 70.00000000000003 350.0 70.00000000000003 350.0 80.00000000000003 360.0 80.00000000000003 360.0 70.00000000000003 350.0 70.00000000000003 350.0 60.00000000000003 340.0 60.00000000000003 340.0 70.00000000000003 330.0 70.00000000000003 330.0 60.00000000000003 320.0 60.00000000000003 320.0 70.00000000000003 330.0 70.00000000000003 330.0 80.00000000000003 320.0 80.00000000000003 320.0 90.00000000000003 310.0 90.00000000000003 310.0 80.00000000000003 320.0 80.00000000000003 320.0 70.00000000000003 310.0 70.00000000000003 310.0 60.00000000000002 300.0 60.00000000000002 300.0 70.00000000000003 290.0 70.00000000000003 290.0 60.00000000000002 300.0 60.00000000000002 300.0 50.00000000000002 290.0 50.00000000000002 290.0 40.00000000000003 300.0 40.00000000000003 300.0 30.00000000000003 310.0 30.00000000000003 310.0 40.00000000000003 320.0 40.00000000000003 320.0 30.00000000000003 310.0 30.00000000000003 310.0 20.00000000000003 300.0 20.00000000000003 300.0 30.00000000000003 290.0 30.00000000000003 290.0 20.00000000000003 280.0 20.00000000000003 280.0 30.00000000000003 290.0 30.00000000000003 290.0 40.00000000000003 280.0 40.00000000000003 280.0 50.00000000000003 270.0 50.00000000000003 270.0 40.00000000000003 280.0 40.00000000000003 280.0 50.00000000000003 290.0 50.00000000000003 290.0 40.00000000000003 300.0 40.00000000000003 300.0 50.00000000000003 290.0 50.00000000000003 290.0 60.00000000000003 300.0 60.00000000000003 300.0 70.00000000000003 290.0 70.00000000000003 290.0 80.00000000000003 280.0 80.00000000000003 280.0 70.00000000000003 290.0 70.00000000000003 290.0 60.00000000000003 280.0 60.00000000000003 280.0 50.00000000000003 270.0 50.00000000000003 270.0 60.00000000000003 260.0 60.00000000000003 260.0 50.00000000000003 249.99999999999997 50.00000000000003 249.99999999999997 60.00000000000003 260.0 60.00000000000003 260.0 70.00000000000003 249.99999999999997 70.00000000000003 249.99999999999997 80.00000000000003 239.99999999999997 80.00000000000003 239.99999999999997 70.00000000000003 249.99999999999997 70.00000000000003 249.99999999999997 60.00000000000003 239.99999999999997 60.00000000000003 239.99999999999997 50.00000000000003 229.99999999999997 50.00000000000003 229.99999999999997 60.00000000000003 219.99999999999997 60.00000000000003 219.99999999999997 50.00000000000003 229.99999999999997 50.00000000000003 229.99999999999997 40.00000000000003 239.99999999999997 40.00000000000003 239.99999999999997 50.00000000000003 229.99999999999997 50.00000000000003 229.99999999999997 60.00000000000003 219.99999999999997 60.00000000000003 219.99999999999997 50.00000000000003 229.99999999999997 50.00000000000003 229.99999999999997 40.00000000000003 219.99999999999997 40.00000000000003 219.99999999999997 30.00000000000003 209.99999999999997 30.00000000000003 209.99999999999997 40.00000000000003 199.99999999999997 40.00000000000003 199.99999999999997 30.00000000000003 190.0 30.00000000000003 190.0 40.00000000000003 200.0 40.00000000000003 200.0 50.00000000000003 190.0 50.00000000000003 190.0 60.00000000000003 180.0 60.00000000000003 180.0 50.00000000000003 190.0 50.00000000000003 190.0 40.00000000000003 180.0 40.00000000000003 180.0 30.00000000000003 170.0 30.00000000000003 170.0 40.00000000000003 160.0 40.00000000000003 160.0 30.00000000000003 150.0 30.00000000000003 150.0 40.00000000000003 160.0 40.00000000000003 160.0 50.00000000000003 150.0 50.00000000000003 150.0 60.00000000000003 140.0 60.00000000000003 140.0 50.00000000000003 130.0 50.00000000000003 130.0 60.00000000000003 140.0 60.00000000000003 140.0 70.00000000000003 150.0 70.00000000000003 150.0 60.00000000000003 160.0 60.00000000000003 160.0 70.00000000000003 150.0 70.00000000000003 150.0 80.00000000000003 160.0 80.00000000000003 160.0 90.00000000000003 150.0 90.00000000000003 150.0 100.00000000000003 140.0 100.00000000000003 140.0 90.00000000000003 130.0 90.00000000000001 130.0 100.00000000000001 140.0 100.00000000000001 140.0 110.00000000000001 150.0 110.00000000000001 150.0 100.00000000000001 160.0 100.00000000000001 160.0 110.00000000000001 170.0 110.00000000000001 170.0 100.00000000000001 160.0 100.00000000000001 160.0 90.00000000000001 170.0 90.00000000000001 170.0 80.00000000000001 180.0 80.00000000000001 180.0 90.00000000000001 170.0 90.00000000000001 170.0 100.00000000000001 180.0 100.00000000000001 190.0 100.00000000000001 200.0 100.00000000000001 200.0 90.00000000000001 190.0 90.0 190.0 80.0 200.0 80.0 200.0 90.0 210.0 90.0 210.0 80.0 220.0 80.0 220.0 90.0 230.0 90.0 230.0 100.0 220.0 100.0 220.0 110.0 230.0 110.0 230.0 100.0 240.0 100.0 240.0 90.0 230.0 90.0 230.0 80.0 240.0 80.0 240.0 70.0 230.0 70.0 230.0 80.0 220.0 80.0 220.0 70.0 210.0 70.0 210.0 60.0 220.0 60.0 220.0 50.0 210.0 50.0 210.0 60.0 200.0 60.0 200.0 70.0 210.0 70.0 210.0 80.0 200.0 80.0 200.0 70.0 190.0 70.0 190.0 80.0 180.0 80.0 180.0 70.0 190.0 70.0 200.0 70.0 200.0 80.0 200.0 90.0 210.0 90.0 210.0 100.0 220.0 100.0 220.0 90.0 230.0 90.0 230.0 80.0 220.0 80.0 220.0 70.0 230.0 70.0 230.0 60.0 220.0 60.0 220.0 70.0 210.0 70.0 210.0 60.0 200.0 60.0 200.0 50.0 210.0 50.0 210.0 60.0 220.0 60.0 220.0 50.0 230.0 50.0 230.0 40.0 220.0 40.0 220.0 30.0 230.0 30.0 230.0 40.0 240.0 40.0 240.0 30.0 250.0 30.0 250.0 40.0 260.0 40.0 260.0 50.0 250.0 50.0 250.0 60.0 260.0 60.0 260.0 50.0 270.0 50.0 270.0 40.0 260.0 40.0 260.0 30.0 270.0 30.0 270.0 20.0 260.0 20.0 260.0 30.0 250.0 30.0 250.0 20.0 240.0 20.0 240.0 10.0 250.0 10.0 250.0 0.0 240.0 0.0 240.0 10.0 230.0 10.0 230.0 20.0 240.0 20.0 240.0 30.0 230.0 30.0 230.0 20.0 220.0 20.0 220.0 30.0 210.0 30.0 210.0 20.0 200.0 20.0 200.0 10.0 210.0 10.0 210.0 0.0 200.0 0.0 200.0 10.0 190.0 10.0 190.0 20.0 200.0 20.0 200.0 30.0 190.0 30.0 190.0 40.0 200.0 40.0 200.0 30.0 210.0 30.0 210.0 40.0 220.0 40.0 220.0 50.0 210.0 50.0 210.0 40.0 200.0 40.0 200.0 50.0 190.0 50.0 190.0 60.0 200.0 60.0 200.0 70.0 190.0 70.0 190.0 80.0 200.0 80.0 200.0 90.0 190.0 90.0 190.0 100.0 180.0 100.0 180.0 90.0 190.0 90.0 190.0 80.0 180.0 79.99999999999999 180.0 69.99999999999999 170.0 69.99999999999999 170.0 79.99999999999999 170.0 69.99999999999999 170.0 59.999999999999986 160.0 59.999999999999986 160.0 69.99999999999999 170.0 69.99999999999999 170.0 79.99999999999999 160.0 79.99999999999999 160.0 89.99999999999999 150.0 89.99999999999997 150.0 79.99999999999997 140.0 79.99999999999997 140.0 89.99999999999997 150.0 89.99999999999997 150.0 99.99999999999997 160.0 99.99999999999997 160.0 89.99999999999997 170.0 89.99999999999997 170.0 99.99999999999997 160.0 99.99999999999997 160.0 109.99999999999997 170.0 109.99999999999997 170.0 119.99999999999997 160.0 119.99999999999997 160.0 129.99999999999997 150.0 129.99999999999997 150.0 119.99999999999997 160.0 119.99999999999997 160.0 109.99999999999997 150.0 109.99999999999997 150.0 99.99999999999997 140.0 99.99999999999997 140.0 109.99999999999997 130.0 109.99999999999996 130.0 99.99999999999996 120.0 99.99999999999996 120.0 109.99999999999996 130.0 109.99999999999996 130.0 119.99999999999996 120.0 119.99999999999996 120.0 129.99999999999994 110.0 129.99999999999994 110.0 119.99999999999996 120.0 119.99999999999996 120.0 109.99999999999996 110.0 109.99999999999996 110.0 99.99999999999996 100.0 99.99999999999994 100.0 109.99999999999994 90.0 109.99999999999994 90.0 99.99999999999994 100.0 99.99999999999994 100.0 89.99999999999994 90.0 89.99999999999994 90.0 79.99999999999994 100.0 79.99999999999994 100.0 69.99999999999994 110.0 69.99999999999994 110.0 79.99999999999994 100.0 79.99999999999994 100.0 89.99999999999994 110.0 89.99999999999994 110.0 99.99999999999994 120.0 99.99999999999994 120.0 89.99999999999994 130.0 89.99999999999994 130.0 99.99999999999994 140.0 99.99999999999994 140.0 89.99999999999994 130.0 89.99999999999994 130.0 79.99999999999994 140.0 79.99999999999994 140.0 69.99999999999994 150.0 69.99999999999994 150.0 79.99999999999994 160.0 79.99999999999994 160.0 69.99999999999994 150.0 69.99999999999994 150.0 59.999999999999936 140.0 59.999999999999936 140.0 69.99999999999994 130.0 69.99999999999994 130.0 59.999999999999936 140.0 59.999999999999936 140.0 49.999999999999936 130.0 49.999999999999936 130.0 39.99999999999994 140.0 39.99999999999994 140.0 29.999999999999943 150.0 29.999999999999943 150.0 39.99999999999994 160.0 39.99999999999994 160.0 29.999999999999943 150.0 29.999999999999943 150.0 19.999999999999943 140.0 19.999999999999943 140.0 29.999999999999943 130.0 29.999999999999943 130.0 19.999999999999943 120.0 19.999999999999943 120.0 29.999999999999943 130.0 29.999999999999943 130.0 39.99999999999994 120.0 39.99999999999994 120.0 49.99999999999994 110.0 49.99999999999994 110.0 39.99999999999994 100.0 39.99999999999994 100.0 49.99999999999994 110.0 49.99999999999994 110.0 59.99999999999994 100.0 59.99999999999994 100.0 69.99999999999994 90.0 69.99999999999994 90.0 59.99999999999994 90.0 69.99999999999994 90.0 79.99999999999994 100.0 79.99999999999994 100.0 89.99999999999994 110.0 89.99999999999994 110.0 79.99999999999994 120.0 79.99999999999994 120.0 89.99999999999994 130.0 89.99999999999994 130.0 79.99999999999994 120.0 79.99999999999994 120.0 69.99999999999994 130.0 69.99999999999994 130.0 59.99999999999994 140.0 59.99999999999994 140.0 69.99999999999994 150.0 69.99999999999994 150.0 59.99999999999994 140.0 59.99999999999994 140.0 49.99999999999994 130.0 49.99999999999994 130.0 59.99999999999994 120.0 59.99999999999994 120.0 49.99999999999994 130.0 49.99999999999994 130.0 39.99999999999994 120.0 39.99999999999994 120.0 29.999999999999943 130.0 29.999999999999943 130.0 19.999999999999943 140.0 19.999999999999943 140.0 29.999999999999943 130.0 29.999999999999943 130.0 39.99999999999994 120.0 39.99999999999994 120.0 29.999999999999943 120.0 19.999999999999943 110.0 19.999999999999943 110.0 29.999999999999943 100.0 29.999999999999943 90.0 29.999999999999943 90.0 39.99999999999994 100.0 39.99999999999994 100.0 49.99999999999994 110.0 49.99999999999994 110.0 39.99999999999994 100.0 39.99999999999994 100.0 29.999999999999943 110.0 29.999999999999943 110.0 19.999999999999943 120.0 19.999999999999943 120.0 29.999999999999943 110.0 29.999999999999943 110.0 39.99999999999994 120.0 39.99999999999994 120.0 49.99999999999994 130.0 49.99999999999994 130.0 39.99999999999994 140.0 39.99999999999994 140.0 49.99999999999994 130.0 49.99999999999994 130.0 59.99999999999994 140.0 59.99999999999994 140.0 69.99999999999994 130.0 69.99999999999994 130.0 79.99999999999994 120.0 79.99999999999994 120.0 69.99999999999994 130.0 69.99999999999994 130.0 59.99999999999994 120.0 59.99999999999994 120.0 49.99999999999994 110.0 49.99999999999994 110.0 59.99999999999994 100.0 59.99999999999994 100.0 49.99999999999994 90.0 49.99999999999994 90.0 59.99999999999994 100.0 59.99999999999994 100.0 69.99999999999994 90.0 69.99999999999994 90.0 79.99999999999994 80.0 79.99999999999994 80.0 69.99999999999994 70.0 69.99999999999994 70.0 79.99999999999994 80.0 79.99999999999994 80.0 89.99999999999994 90.0 89.99999999999994 90.0 79.99999999999994 100.0 79.99999999999994 100.0 89.99999999999994 90.0 89.99999999999994 90.0 99.99999999999994 100.0 99.99999999999994 100.0 109.99999999999994 90.0 109.99999999999994 90.0 119.99999999999994 80.0 119.99999999999994 80.0 109.99999999999994 80.0 99.99999999999994 70.0 99.99999999999993 70.0 109.99999999999993 60.0 109.99999999999993 50.0 109.99999999999993 50.0 119.99999999999993 40.0 119.99999999999993 40.0 109.99999999999993 30.0 109.99999999999993 30.0 119.99999999999993 40.0 119.99999999999993 40.0 129.99999999999994 30.0 129.99999999999991 30.0 139.99999999999991 20.0 139.99999999999991 20.0 129.99999999999991 30.0 129.99999999999991 30.0 119.99999999999991 20.0 119.99999999999991 20.0 109.99999999999991 10.0 109.99999999999991 10.0 119.99999999999991 0.0 119.99999999999991 0.0 109.99999999999991 10.0 109.99999999999991 10.0 99.99999999999991 0.0 99.99999999999991 0.0 89.99999999999991 10.0 89.99999999999991 10.0 79.99999999999991 20.0 79.99999999999991 20.0 89.99999999999991 10.0 89.99999999999991 10.0 99.99999999999991 20.0 99.99999999999991 20.0 109.99999999999991 30.0 109.99999999999991 30.0 99.99999999999991 40.0 99.99999999999991 40.0 109.99999999999991 50.0 109.99999999999991 50.0 99.99999999999991 40.0 99.99999999999991 40.0 89.99999999999991 50.0 89.99999999999991 50.0 79.99999999999991 60.0 79.99999999999991 60.0 89.99999999999991 70.0 89.99999999999991 70.0 79.99999999999991 60.0 79.9999999999999 60.0 69.9999999999999 50.0 69.9999999999999 50.0 79.9999999999999 40.0 79.9999999999999 40.0 69.9999999999999 50.0 69.9999999999999 50.0 59.9999999999999 40.0 59.9999999999999 40.0 49.9999999999999 50.0 49.9999999999999 50.0 39.9999999999999 60.0 39.9999999999999 60.0 49.9999999999999 50.0 49.9999999999999 50.0 59.9999999999999 60.0 59.9999999999999 60.0 69.9999999999999 70.0 69.9999999999999 70.0 59.9999999999999 80.0 59.9999999999999 80.0 69.9999999999999 90.0 69.9999999999999 90.0 59.9999999999999 80.0 59.9999999999999 80.0 49.9999999999999 90.0 49.9999999999999 90.0 39.9999999999999 100.0 39.9999999999999 100.0 49.9999999999999 90.0 49.9999999999999 90.0 59.9999999999999 100.0 59.9999999999999 100.0 69.9999999999999 110.0 69.9999999999999 110.0 59.9999999999999 120.0 59.9999999999999 120.0 69.9999999999999 110.0 69.9999999999999 110.0 79.9999999999999 120.0 79.9999999999999 120.0 89.9999999999999 110.0 89.9999999999999 110.0 99.9999999999999 100.0 99.9999999999999 100.0 89.99999999999989" fill="transparent"/></svg>
